<?xml version="1.0" encoding="UTF-8" standalone="no"?>
<svg width="84px" height="59px" viewBox="0 0 84 59" version="1.1" xmlns="http://www.w3.org/2000/svg" xmlns:xlink="http://www.w3.org/1999/xlink">
    <!-- Generator: Sketch 44 (41411) - http://www.bohemiancoding.com/sketch -->
    <title>availability_icon</title>
    <desc>Created with Sketch.</desc>
    <defs>
        <path d="M22.9600225,27.1345721 C29.8668148,27.1345721 35.4836712,21.5177157 35.4836712,14.6109234 L35.4836712,12.5236486 C35.4836712,5.61685642 29.8668148,0 22.9600225,0 C16.0532303,0 10.4363739,5.61685642 10.4363739,12.5236486 L10.4363739,14.6109234 C10.4363739,21.5177157 16.0532303,27.1345721 22.9600225,27.1345721 Z" id="path-1"></path>
    </defs>
    <g id="Current-design" stroke="none" stroke-width="1" fill="none" fill-rule="evenodd">
        <g id="How-it-works-modal" transform="translate(-630.000000, -639.000000)">
            <g id="availability_icon" transform="translate(631.000000, 640.000000)">
                <g id="Page-1" transform="translate(50.000000, 0.000000)">
                    <path d="M30.9677419,0.0967741935 L24.3225806,0.0967741935 L23.1935484,0.0967741935 L8.80645161,0.0967741935 L7.67741935,0.0967741935 L1.03225806,0.0967741935 C0.461935484,0.0967741935 0,0.558709677 0,1.12903226 L0,27.9677419 C0,28.5380645 0.461935484,29 1.03225806,29 L30.9677419,29 C31.5380645,29 32,28.5380645 32,27.9677419 L32,1.12903226 C32,0.558709677 31.5380645,0.0967741935 30.9677419,0.0967741935 Z" id="Fill-5" stroke="#43505D" stroke-width="2" fill="#009EFF"></path>
                    <polygon id="Path" fill="#FFFFFF" points="1.03225806 28.050968 1.03225806 7.87096774 30.9677419 7.87096774 30.9677419 28.050968"></polygon>
                    <path d="M22.5584516,13.8810323 L14.3003871,22.1390968 C14.1997419,22.2397419 14.0676129,22.2903226 13.9354839,22.2903226 C13.8033548,22.2903226 13.6712258,22.2397419 13.5705806,22.1390968 L9.44154839,18.0100645 C9.23974194,17.8082581 9.23974194,17.4820645 9.44154839,17.2802581 C9.64335484,17.0784516 9.96954839,17.0784516 10.1713548,17.2802581 L13.9354839,21.0443871 L21.8286452,13.1512258 C22.0304516,12.9494194 22.3566452,12.9494194 22.5584516,13.1512258 C22.7602581,13.3530323 22.7602581,13.6792258 22.5584516,13.8810323 Z" id="Fill-1" stroke="#009BFF" fill="#009EFF"></path>
                </g>
                <g id="Page-1" transform="translate(-0.000000, 6.905405)">
                    <g id="Fill-1">
                        <use fill="#C9F0FF" fill-rule="evenodd" xlink:href="#path-1"></use>
                        <path stroke="#43505D" stroke-width="2" d="M22.9600225,28.1345721 C15.5009455,28.1345721 9.43637387,22.0700004 9.43637387,14.6109234 L9.43637387,12.5236486 C9.43637387,5.06457167 15.5009455,-1 22.9600225,-1 C30.4190995,-1 36.4836712,5.06457167 36.4836712,12.5236486 L36.4836712,14.6109234 C36.4836712,22.0700004 30.4190995,28.1345721 22.9600225,28.1345721 Z"></path>
                    </g>
                    <path d="M38.2430484,33.3567382 C28.4245079,30.6370191 17.4976244,30.6370191 7.67699662,33.3567382 C3.15804673,34.609101 0,38.7481668 0,43.4257517 L0,50.0945946 L45.920045,50.0945946 L45.920045,43.4257517 C45.920045,38.7481668 42.7619983,34.609101 38.2430484,33.3567382 Z" id="Fill-3" stroke="#43505D" stroke-width="2" fill="#C9F0FF"></path>
                </g>
            </g>
        </g>
    </g>
</svg>