<?xml version="1.0" encoding="UTF-8" standalone="no"?>
<svg width="79px" height="75px" viewBox="0 0 79 75" version="1.1" xmlns="http://www.w3.org/2000/svg" xmlns:xlink="http://www.w3.org/1999/xlink">
    <!-- Generator: Sketch 44 (41411) - http://www.bohemiancoding.com/sketch -->
    <title>car_question_icon</title>
    <desc>Created with Sketch.</desc>
    <defs>
        <path d="M52.4749351,19.7419785 L6.39938233,19.7419785 C5.98817082,19.7419785 5.60132815,19.5461743 5.36135132,19.2146777 C5.12074734,18.8838029 5.05512807,18.4587442 5.18511233,18.0714757 L9.42970744,3.87680732 C10.1271505,1.80107996 12.0788341,0.40631463 14.2861219,0.40631463 L44.5881955,0.40631463 C46.7954833,0.40631463 48.7471669,1.80107996 49.4445972,3.87742912 L53.6891923,18.0714757 C53.8191765,18.4587442 53.7535573,18.8838029 53.5129533,19.2146777 C53.2729892,19.5461743 52.8861466,19.7419785 52.4749351,19.7419785 Z" id="path-1"></path>
        <path d="M51.1950586,19.3599251 L7.67925879,19.3599251 C3.43811935,19.3599251 0,22.7687833 0,26.9738272 L0,37.1256966 L58.8743174,37.1256966 L58.8743174,26.9738272 C58.8743174,22.7687833 55.436198,19.3599251 51.1950586,19.3599251 Z" id="path-2"></path>
        <linearGradient x1="50%" y1="0%" x2="50%" y2="100%" id="linearGradient-3">
            <stop stop-color="#FFFFFF" offset="0%"></stop>
            <stop stop-color="#000000" offset="100%"></stop>
        </linearGradient>
        <path d="M10.3942863,24.2819067 C11.8937512,25.7686099 11.8937512,28.1790444 10.3942863,29.6657476 C8.89481762,31.1524508 6.46369996,31.1524508 4.96423125,29.6657476 C3.46476254,28.1790444 3.46476254,25.7686099 4.96423125,24.2819067 C6.46369996,22.7952035 8.89481762,22.7952035 10.3942863,24.2819067" id="path-4"></path>
        <path d="M53.9100861,24.2819067 C55.409551,25.7686099 55.409551,28.1790444 53.9100861,29.6657476 C52.4106213,31.1524508 49.9794959,31.1524508 48.4800311,29.6657476 C46.9805662,28.1790444 46.9805662,25.7686099 48.4800311,24.2819067 C49.9794959,22.7952035 52.4106213,22.7952035 53.9100861,24.2819067" id="path-5"></path>
        <circle id="path-6" cx="19.6236559" cy="19.6236559" r="19.6236559"></circle>
    </defs>
    <g id="Current-design" stroke="none" stroke-width="1" fill="none" fill-rule="evenodd">
        <g id="How-it-works-modal" transform="translate(-632.000000, -400.000000)">
            <g id="car_question_icon" transform="translate(634.000000, 402.000000)">
                <g id="Group-21" transform="translate(0.000000, 27.473118)">
                    <g id="Fill-1">
                        <use fill="#FFFFFF" fill-rule="evenodd" xlink:href="#path-1"></use>
                        <path stroke="#43505D" stroke-width="2" d="M52.4749351,20.7419785 L6.39938233,20.7419785 C5.66787126,20.7419785 4.97961444,20.3926971 4.55257774,19.8027979 C4.12170276,19.2102654 4.0040711,18.4475165 4.22702996,17.7849828 L8.48178502,3.55830598 C9.31641465,1.07428457 11.6504538,-0.59368537 14.2861219,-0.59368537 L44.5881955,-0.59368537 C47.2240307,-0.59368537 49.5580029,1.07445302 50.4026761,3.5909247 L54.6372164,17.7532773 C54.8702335,18.4475165 54.7526018,19.2102654 54.3229943,19.8010509 C53.8947182,20.3926899 53.2064535,20.7419785 52.4749351,20.7419785 Z"></path>
                    </g>
                    <g id="Fill-4">
                        <use fill="#009BFF" fill-rule="evenodd" xlink:href="#path-2"></use>
                        <path stroke="#43505D" stroke-width="2" d="M51.1950586,18.3599251 C55.9865785,18.3599251 59.8743174,22.2145762 59.8743174,26.9738272 L59.8743174,38.1256966 L-1,38.1256966 L-1,26.9738272 C-1,22.2145762 2.88773887,18.3599251 7.67925879,18.3599251 L51.1950586,18.3599251 Z"></path>
                    </g>
                    <g id="Fill-5">
                        <use fill="#FFFFFF" xlink:href="#path-4"></use>
                        <use fill-opacity="0.2" fill="url(#linearGradient-3)" style="mix-blend-mode: soft-light;" xlink:href="#path-4"></use>
                    </g>
                    <g id="Fill-6">
                        <use fill="#FFFFFF" xlink:href="#path-5"></use>
                        <use fill-opacity="0.2" fill="url(#linearGradient-3)" style="mix-blend-mode: soft-light;" xlink:href="#path-5"></use>
                    </g>
                    <path d="M39.6761704,33.3187455 L19.198147,33.3187455 C17.7844338,33.3187455 16.638394,32.1824595 16.638394,30.7807782 L16.638394,30.7807782 C16.638394,29.3790969 17.7844338,28.2428109 19.198147,28.2428109 L39.6761704,28.2428109 C41.0898836,28.2428109 42.2359233,29.3790969 42.2359233,30.7807782 L42.2359233,30.7807782 C42.2359233,32.1824595 41.0898836,33.3187455 39.6761704,33.3187455 Z" id="Fill-8" fill="#43505D"></path>
                    <path d="M10.2390117,44.8128451 L5.11950586,44.8128451 C3.70579271,44.8128451 2.55975293,43.6765591 2.55975293,42.2748778 L2.55975293,37.1989431 L12.7987647,37.1989431 L12.7987647,42.2748778 C12.7987647,43.6765565 11.6527249,44.8128451 10.2390117,44.8128451 Z" id="Fill-9" fill="#43505D"></path>
                    <path d="M53.7548115,44.8128451 L48.6353057,44.8128451 C47.2215925,44.8128451 46.0755527,43.6765591 46.0755527,42.2748778 L46.0755527,37.1989431 L56.3145645,37.1989431 L56.3145645,42.2748778 C56.3145645,43.6765565 55.1685247,44.8128451 53.7548115,44.8128451 Z" id="Fill-10" fill="#43505D"></path>
                </g>
                <g id="Group-19" transform="translate(35.322581, 0.000000)">
                    <g id="Group-17" transform="translate(0.405633, 0.000000)">
                        <g id="Oval">
                            <use fill="#C9F0FF" fill-rule="evenodd" xlink:href="#path-6"></use>
                            <circle stroke="#43505D" stroke-width="2" cx="19.6236559" cy="19.6236559" r="20.6236559"></circle>
                        </g>
                        <path d="M19.2618373,9.40944026 C16.9799155,9.40944026 14.9327982,10.8477603 14.1730572,12.9877981 L13.7223405,14.251695 L16.2660559,15.1466199 L16.7154231,13.8813813 C17.0973177,12.8120333 18.1202017,12.0928732 19.2618373,12.0928732 C20.7502819,12.0928732 21.9607396,13.2963929 21.9607396,14.7763062 C21.9607396,15.624271 21.630124,15.9020063 20.6760621,16.5835983 C19.5101363,17.4154625 17.9123862,18.5559215 17.9123862,21.4848886 L17.9123862,22.8266051 L20.6112884,22.8266051 L20.6112884,21.4848886 C20.6112884,19.9325226 21.2617239,19.4682887 22.2495221,18.7638876 C23.2670082,18.038019 24.6596418,17.043807 24.6596418,14.7763062 C24.6596418,11.8164796 22.2387265,9.40944026 19.2618373,9.40944026 Z" id="Combined-Shape" fill="#43505D"></path>
                        <path d="M20.6931461,26.0995078 C21.4836371,26.8854665 21.4836371,28.159759 20.6931461,28.9457178 C19.9026566,29.7316773 18.6210181,29.7316773 17.8305285,28.9457178 C17.0400376,28.159759 17.0400376,26.8854665 17.8305285,26.0995078 C18.6210181,25.3135477 19.9026566,25.3135477 20.6931461,26.0995078" id="Fill-1" fill="#43505D"></path>
                    </g>
                </g>
            </g>
        </g>
    </g>
</svg>