<svg xmlns="http://www.w3.org/2000/svg" enable-background="new 0 0 24 24" height="18px" viewBox="0 0 32 32" width="18px"
     fill="#7D838A">
  <g>
    <path fill="#5cb958" style="fill: var(--color1, #5cb958)" d="M16 32c-8.837 0-16-7.163-16-16s7.163-16 16-16c8.837 0 16 7.163 16 16s-7.163 16-16 16zM16 29.714c7.574 0 13.714-6.14 13.714-13.714s-6.14-13.714-13.714-13.714c-7.574 0-13.714 6.14-13.714 13.714s6.14 13.714 13.714 13.714z"></path>
	<path fill="#5cb958" style="fill: var(--color1, #5cb958)" d="M18.716 11.823c0.253-0.362 0.816-0.484 1.258-0.327 0.56 0.2 0.763 0.753 0.453 1.457l-4.773 7.031c-0.461 0.66-1.435 0.79-2.103 0.252l-2.776-2.606c-0.586-0.471-0.654-1.298-0.153-1.848s1.382-0.614 1.968-0.144l0.038 0.034 1.629 1.611 4.46-5.461z"></path>
  </g>
</svg>
