<?xml version="1.0" encoding="UTF-8" standalone="no"?>
<svg width="73px" height="54px" viewBox="0 0 73 54" version="1.1" xmlns="http://www.w3.org/2000/svg" xmlns:xlink="http://www.w3.org/1999/xlink">
    <!-- Generator: Sketch 44 (41411) - http://www.bohemiancoding.com/sketch -->
    <title>experience_icon</title>
    <desc>Created with Sketch.</desc>
    <defs>
        <path d="M22.9600225,27.1345721 C29.8668148,27.1345721 35.4836712,21.5177157 35.4836712,14.6109234 L35.4836712,12.5236486 C35.4836712,5.61685642 29.8668148,0 22.9600225,0 C16.0532303,0 10.4363739,5.61685642 10.4363739,12.5236486 L10.4363739,14.6109234 C10.4363739,21.5177157 16.0532303,27.1345721 22.9600225,27.1345721 Z" id="path-1"></path>
        <path d="M46,13.5336662 C47.3230174,14.9727377 49.2727273,15.8547493 51.9651838,15.8547493 C55.7021277,15.8547493 58.1624758,13.7889853 58.1624758,10.516258 C58.1624758,7.38279576 55.8181818,5.52592922 53.1953578,5.52592922 C51.7794971,5.52592922 50.5261122,6.08298918 49.7137331,6.80252496 L49.7137331,2.92631606 L57.1179884,2.92631606 L57.1179884,0.0945945946 L46.4874275,0.0945945946 L46.4874275,8.93792148 L48.7852998,9.56461394 C49.7137331,8.68260233 50.7582205,8.28801819 52.0348162,8.28801819 C53.7988395,8.28801819 54.8201161,9.23966229 54.8201161,10.655523 C54.8201161,11.9321188 53.7756286,12.9766062 51.9419729,12.9766062 C50.3172147,12.9766062 48.8781431,12.3963354 47.8104449,11.3054263 L46,13.5336662 Z M65.8452611,8.6593915 L70,8.6593915 L70,6.82573579 L65.8452611,6.82573579 L65.8452611,2.29962361 L63.8259188,2.29962361 L63.8259188,6.82573579 L59.6479691,6.82573579 L59.6479691,8.6593915 L63.8259188,8.6593915 L63.8259188,13.3711903 L65.8452611,13.3711903 L65.8452611,8.6593915 Z" id="path-2"></path>
    </defs>
    <g id="Current-design" stroke="none" stroke-width="1" fill="none" fill-rule="evenodd">
        <g id="CR-LP-Vetting-v1" transform="translate(-531.000000, -639.000000)">
            <g id="Group-5" transform="translate(532.000000, 402.000000)">
                <g id="experience_icon" transform="translate(0.000000, 239.000000)">
                    <g id="Page-1" transform="translate(-0.000000, 0.905405)">
                        <g id="Group-4">
                            <g id="Fill-1">
                                <use fill="#C9F0FF" fill-rule="evenodd" xlink:href="#path-1"></use>
                                <path stroke="#43505D" stroke-width="2" d="M22.9600225,28.1345721 C15.5009455,28.1345721 9.43637387,22.0700004 9.43637387,14.6109234 L9.43637387,12.5236486 C9.43637387,5.06457167 15.5009455,-1 22.9600225,-1 C30.4190995,-1 36.4836712,5.06457167 36.4836712,12.5236486 L36.4836712,14.6109234 C36.4836712,22.0700004 30.4190995,28.1345721 22.9600225,28.1345721 Z"></path>
                            </g>
                            <path d="M38.2430484,33.3567382 C28.4245079,30.6370191 17.4976244,30.6370191 7.67699662,33.3567382 C3.15804673,34.609101 0,38.7481668 0,43.4257517 L0,50.0945946 L45.920045,50.0945946 L45.920045,43.4257517 C45.920045,38.7481668 42.7619983,34.609101 38.2430484,33.3567382 Z" id="Fill-3" stroke="#43505D" stroke-width="2" fill="#C9F0FF"></path>
                            <g id="5+">
                                <use fill="#FFFFFF" fill-rule="evenodd" xlink:href="#path-2"></use>
                                <path stroke="#43505D" stroke-width="2" d="M47.4009653,10.2235913 L45.4874275,9.70171732 L45.4874275,-0.905405405 L58.1179884,-0.905405405 L58.1179884,3.92631606 L50.7137331,3.92631606 L50.7137331,5.02293223 C51.4793126,4.70425438 52.3280305,4.52592922 53.1953578,4.52592922 C56.5371065,4.52592922 59.1624758,6.98460846 59.1624758,10.516258 C59.1624758,14.3597987 56.2451825,16.8547493 51.9651838,16.8547493 C49.1176233,16.8547493 46.851888,15.9378242 45.2638324,14.2104654 L44.6787285,13.5740366 L47.4009653,10.2235913 Z M66.8452611,9.6593915 L66.8452611,14.3711903 L62.8259188,14.3711903 L62.8259188,9.6593915 L58.6479691,9.6593915 L58.6479691,5.82573579 L62.8259188,5.82573579 L62.8259188,1.29962361 L66.8452611,1.29962361 L66.8452611,5.82573579 L71,5.82573579 L71,9.6593915 L66.8452611,9.6593915 Z"></path>
                            </g>
                        </g>
                    </g>
                </g>
            </g>
        </g>
    </g>
</svg>