<?xml version="1.0" encoding="UTF-8" standalone="no"?>
<svg width="95px" height="75px" viewBox="0 0 95 75" version="1.1" xmlns="http://www.w3.org/2000/svg" xmlns:xlink="http://www.w3.org/1999/xlink">
    <!-- Generator: Sketch 44 (41411) - http://www.bohemiancoding.com/sketch -->
    <title>home_car_icon</title>
    <desc>Created with Sketch.</desc>
    <defs>
        <path d="M28.4692866,25.5135135 L28.4692866,7.97297297 C28.4692866,7.09231027 29.1861856,6.37837838 30.0705441,6.37837838 L36.4755738,6.37837838 C37.3599323,6.37837838 38.0768312,7.09231027 38.0768312,7.97297297 L38.0768312,17.6855051 L28.4692866,25.5135135 Z" id="path-1"></path>
        <path d="M54.0894056,1.59459459 L26.8680292,25.6906411 L26.8680292,66.9721916 C26.8680292,68.7335011 28.3018752,70.1613808 30.0705441,70.1613808 L78.1082672,70.1613808 C79.8770322,70.1613808 81.3107821,68.7335011 81.3107821,66.9721916 L81.3107821,25.6906411 L54.0894056,1.59459459 Z" id="path-2"></path>
        <path d="M89.3162846,35.0802997 C88.9323832,35.0802997 88.5469285,34.9432603 88.2396632,34.6660719 L54.0894056,3.74900351 L19.9391481,34.6660878 C19.2839455,35.2578259 18.2714384,35.2079949 17.6772118,34.5586441 C17.0822162,33.9061678 17.1299017,32.8986392 17.7843199,32.3053384 L53.0119835,0.413446486 C53.6234077,-0.137804865 54.5553876,-0.137804865 55.1667957,0.413446486 L90.3944593,32.3053384 C91.0488772,32.8986392 91.0965787,33.9061678 90.5015674,34.5586441 C90.1857194,34.9043362 89.7517786,35.0802997 89.3162846,35.0802997 Z" id="path-3"></path>
        <path d="M28.0453244,10.1760693 L3.42016152,10.1760693 C3.20038878,10.1760693 2.99364002,10.0709623 2.86538396,9.89301604 C2.73679273,9.71540359 2.70172239,9.48723351 2.77119271,9.27934916 L5.03972428,2.50241316 C5.41247401,1.38816991 6.45555486,0.639464707 7.63524382,0.639464707 L23.8302421,0.639464707 C25.0099311,0.639464707 26.053012,1.38816991 26.4257548,2.50274694 L28.6942864,9.27934916 C28.7637567,9.48723351 28.7286864,9.71540359 28.6000952,9.89301604 C28.4718459,10.0709623 28.2650972,10.1760693 28.0453244,10.1760693 Z" id="path-4"></path>
        <path d="M27.3612921,10.8136972 L4.10419382,10.8136972 C1.83750914,10.8136972 0,12.6435604 0,14.9008134 L0,20.3503018 L31.465486,20.3503018 L31.465486,14.9008134 C31.465486,12.6435604 29.6279768,10.8136972 27.3612921,10.8136972 Z" id="path-5"></path>
        <linearGradient x1="50%" y1="0%" x2="50%" y2="100%" id="linearGradient-6">
            <stop stop-color="#FFFFFF" offset="0%"></stop>
            <stop stop-color="#000000" offset="100%"></stop>
        </linearGradient>
        <path d="M5.55524523,13.4557999 C6.35663695,14.253857 6.35663695,15.5477699 5.55524523,16.345827 C4.75385145,17.1438841 3.45453619,17.1438841 2.65314242,16.345827 C1.85174864,15.5477699 1.85174864,14.253857 2.65314242,13.4557999 C3.45453619,12.6577427 4.75385145,12.6577427 5.55524523,13.4557999" id="path-7"></path>
        <path d="M28.8123435,13.4557999 C29.6137353,14.253857 29.6137353,15.5477699 28.8123435,16.345827 C28.0109518,17.1438841 26.7116325,17.1438841 25.9102407,16.345827 C25.108849,15.5477699 25.108849,14.253857 25.9102407,13.4557999 C26.7116325,12.6577427 28.0109518,12.6577427 28.8123435,13.4557999" id="path-8"></path>
        <path d="M5.47225843,26.1621622 L2.73612921,26.1621622 C1.98056765,26.1621622 1.36806461,25.5522077 1.36806461,24.7997901 L1.36806461,22.0750459 L6.84032304,22.0750459 L6.84032304,24.7997901 C6.84032304,25.5522064 6.22781999,26.1621622 5.47225843,26.1621622 Z" id="path-9"></path>
        <path d="M28.7293567,26.1621622 L25.9932275,26.1621622 C25.237666,26.1621622 24.6251629,25.5522077 24.6251629,24.7997901 L24.6251629,22.0750459 L30.0974214,22.0750459 L30.0974214,24.7997901 C30.0974214,25.5522064 29.4849183,26.1621622 28.7293567,26.1621622 Z" id="path-10"></path>
    </defs>
    <g id="Current-design" stroke="none" stroke-width="1" fill="none" fill-rule="evenodd">
        <g id="How-it-works-modal" transform="translate(-954.000000, -628.000000)">
            <g id="home_car_icon" transform="translate(956.000000, 630.000000)">
                <g id="Page-1" transform="translate(7.000000, 29.941814)"></g>
                <g id="Fill-1">
                    <use fill="#FFFFFF" fill-rule="evenodd" xlink:href="#path-1"></use>
                    <path stroke="#43505D" stroke-width="2" d="M27.4692866,27.6181984 L27.4692866,7.97297297 C27.4692866,6.539086 28.6348361,5.37837838 30.0705441,5.37837838 L36.4755738,5.37837838 C37.9112818,5.37837838 39.0768312,6.539086 39.0768312,7.97297297 L39.0768312,18.1606356 L27.4692866,27.6181984 Z"></path>
                </g>
                <g id="Fill-3">
                    <use fill="#C9EFFF" fill-rule="evenodd" xlink:href="#path-2"></use>
                    <path stroke="#43505D" stroke-width="2" d="M54.0894056,0.259095253 L82.3107821,25.2403301 L82.3107821,66.9721916 C82.3107821,69.2867498 80.4283571,71.1613808 78.1082672,71.1613808 L30.0705441,71.1613808 C27.7505217,71.1613808 25.8680292,69.2867214 25.8680292,66.9721916 L25.8680292,25.2403301 L54.0894056,0.259095253 Z"></path>
                </g>
                <g id="Fill-4">
                    <use fill="#009BFF" fill-rule="evenodd" xlink:href="#path-3"></use>
                    <path stroke="#43505D" stroke-width="2" d="M54.0894058,5.09793384 L20.6093983,35.408223 C19.5467156,36.3679718 17.9052804,36.289132 16.9383071,35.232454 C15.9703638,34.1710008 16.0482893,32.5294457 17.1131839,31.5640041 L52.3423683,-0.329261718 C53.3342967,-1.22357025 54.8445085,-1.22357025 55.8379317,-0.327887784 L91.0661245,31.5644836 C92.1304953,32.5294511 92.2084292,34.1710136 91.2398231,35.233165 C90.7406976,35.7794524 90.0424096,36.0802997 89.3162846,36.0802997 C88.676192,36.0802997 88.0546584,35.8459541 87.5685205,35.4074001 L54.0894058,5.09793384 Z"></path>
                </g>
                <path d="M60.4944354,50.4324324 L47.6843759,50.4324324 C46.8000334,50.4324324 46.0831184,51.1463643 46.0831184,52.027027 L46.0831184,71.1621622 L62.0956928,71.1621622 L62.0956928,52.027027 C62.0956928,51.1463643 61.3787778,50.4324324 60.4944354,50.4324324 Z" id="Fill-5" stroke="#43505D" stroke-width="2" fill="#FFFFFF"></path>
                <path d="M60.4944354,39.8648649 L47.6843759,39.8648649 C46.8000334,39.8648649 46.0831184,39.150933 46.0831184,38.2702703 L46.0831184,28.7027027 C46.0831184,27.82204 46.8000334,27.1081081 47.6843759,27.1081081 L60.4944354,27.1081081 C61.3787778,27.1081081 62.0956928,27.82204 62.0956928,28.7027027 L62.0956928,38.2702703 C62.0956928,39.150933 61.3787778,39.8648649 60.4944354,39.8648649 Z" id="Fill-6" stroke="#43505D" stroke-width="2" fill="#FFFFFF"></path>
                <g id="Group-21" transform="translate(0.000000, 46.000000)">
                    <g id="Fill-1">
                        <use fill="#FFFFFF" fill-rule="evenodd" xlink:href="#path-4"></use>
                        <path stroke="#43505D" stroke-width="2" d="M28.0453244,11.1760693 L3.42016152,11.1760693 C2.87932309,11.1760693 2.37057319,10.9167526 2.05538838,10.479452 C1.73773353,10.0407016 1.65105398,9.47618708 1.82291119,8.9619186 L4.09138248,2.18516274 C4.60074872,0.662538141 6.02611207,-0.360535293 7.63524382,-0.360535293 L23.8302421,-0.360535293 C25.4394822,-0.360535293 26.8648186,0.662651482 27.3740317,2.18530233 L29.6427292,8.96240071 C29.8144251,9.47618708 29.7277456,10.0407016 29.4113529,10.4777048 C29.0949275,10.9167461 28.5861694,11.1760693 28.0453244,11.1760693 Z"></path>
                    </g>
                    <g id="Fill-4">
                        <use fill="#009BFF" fill-rule="evenodd" xlink:href="#path-5"></use>
                        <path stroke="#43505D" stroke-width="2" d="M27.3612921,9.81369719 C30.1793303,9.81369719 32.465486,12.0903401 32.465486,14.9008134 L32.465486,21.3503018 L-1,21.3503018 L-1,14.9008134 C-1,12.0903401 1.28615565,9.81369719 4.10419382,9.81369719 L27.3612921,9.81369719 Z"></path>
                    </g>
                    <g id="Fill-5">
                        <use fill="#FFFFFF" xlink:href="#path-7"></use>
                        <use fill-opacity="0.2" fill="url(#linearGradient-6)" style="mix-blend-mode: soft-light;" xlink:href="#path-7"></use>
                    </g>
                    <g id="Fill-6">
                        <use fill="#FFFFFF" xlink:href="#path-8"></use>
                        <use fill-opacity="0.2" fill="url(#linearGradient-6)" style="mix-blend-mode: soft-light;" xlink:href="#path-8"></use>
                    </g>
                    <path d="M21.2050014,18.3067436 L10.2604846,18.3067436 C9.50492299,18.3067436 8.89241995,17.6967892 8.89241995,16.9443716 L8.89241995,16.9443716 C8.89241995,16.1919539 9.50492299,15.5819995 10.2604846,15.5819995 L21.2050014,15.5819995 C21.960563,15.5819995 22.573066,16.1919539 22.573066,16.9443716 L22.573066,16.9443716 C22.573066,17.6967892 21.960563,18.3067436 21.2050014,18.3067436 Z" id="Fill-8" fill="#43505D"></path>
                    <g id="Fill-9">
                        <use fill="#43505D" xlink:href="#path-9"></use>
                        <use fill-opacity="0.2" fill="url(#linearGradient-6)" style="mix-blend-mode: soft-light;" xlink:href="#path-9"></use>
                    </g>
                    <g id="Fill-10">
                        <use fill="#43505D" xlink:href="#path-10"></use>
                        <use fill-opacity="0.2" fill="url(#linearGradient-6)" style="mix-blend-mode: soft-light;" xlink:href="#path-10"></use>
                    </g>
                </g>
            </g>
        </g>
    </g>
</svg>