<?xml version="1.0" encoding="utf-8"?>
<!-- Generator: Adobe Illustrator 18.1.0, SVG Export Plug-In . SVG Version: 6.00 Build 0)  -->
<svg version="1.0" id="Layer_1" xmlns="http://www.w3.org/2000/svg" xmlns:xlink="http://www.w3.org/1999/xlink" x="0px" y="0px"
	 viewBox="0 0 147 136.9" enable-background="new 0 0 147 136.9" xml:space="preserve">
<path fill="#FFFFFF" d="M12.2,71.8l9.5,59.5c0.5,3.1,3.4,5.6,6.5,5.6h90.5c3.1,0,6.1-2.5,6.5-5.6l9.5-59.5c0.5-3.1-1.7-5.6-4.8-5.6
	H17C13.9,66.2,11.7,68.8,12.2,71.8z M104.2,121.9l4.9-40c0.2-1.9,1.9-3.2,3.8-3l1.5,0.2c1.9,0.2,3.2,1.9,3,3.8l-4.9,40
	c-0.2,1.9-1.9,3.2-3.8,3l-1.5-0.2C105.4,125.5,104,123.8,104.2,121.9z M87,122.4l2.1-40.3c0.1-1.9,1.7-3.3,3.6-3.2l1.5,0.1
	c1.9,0.1,3.3,1.7,3.2,3.6l-2.1,40.3c-0.1,1.9-1.7,3.3-3.6,3.2l-1.5-0.1C88.3,125.8,86.9,124.2,87,122.4z M69.4,82.3
	c0-1.9,1.5-3.4,3.4-3.4h1.5c1.9,0,3.4,1.5,3.4,3.4v40.3c0,1.9-1.5,3.4-3.4,3.4h-1.5c-1.9,0-3.4-1.5-3.4-3.4V82.3z M52.9,78.9
	l1.5-0.1c1.9-0.1,3.5,1.3,3.6,3.2l2.1,40.3c0.1,1.9-1.3,3.5-3.2,3.6l-1.5,0.1c-1.9,0.1-3.5-1.3-3.6-3.2l-2.1-40.3
	C49.6,80.7,51,79,52.9,78.9z M32.6,79.1l1.5-0.2c1.9-0.2,3.6,1.1,3.8,3l4.9,40c0.2,1.9-1.1,3.6-3,3.8l-1.5,0.2
	c-1.9,0.2-3.6-1.1-3.8-3l-4.9-40C29.4,81.1,30.7,79.4,32.6,79.1z M5.7,40.2h26.3c0-0.1,0.1-0.3,0.1-0.4l16-37.1
	C48.8,1.1,50.4,0,52.3,0c0.6,0,1.2,0.1,1.8,0.4l3.3,1.4c1.1,0.5,2,1.4,2.4,2.5c0.4,1.1,0.4,2.4,0,3.5l-14,32.5h55.6l-14-32.5
	c-1-2.3,0.1-5,2.4-5.9L93,0.4C93.5,0.1,94.1,0,94.7,0c1.8,0,3.5,1.1,4.2,2.7l16,37.1c0.1,0.1,0.1,0.3,0.1,0.4h26.3
	c3.1,0,5.7,2.5,5.7,5.7v7.4c0,3.1-2.5,5.7-5.7,5.7H5.7c-3.1,0-5.7-2.5-5.7-5.7v-7.4C0,42.8,2.5,40.2,5.7,40.2z"/>
</svg>
