<?xml version="1.0" encoding="UTF-8"?>
<svg width="55px" height="55px" viewBox="0 0 55 55" version="1.1" xmlns="http://www.w3.org/2000/svg" xmlns:xlink="http://www.w3.org/1999/xlink">
    <!-- Generator: Sketch 51.2 (57519) - http://www.bohemiancoding.com/sketch -->
    <title>Group 30</title>
    <desc>Created with Sketch.</desc>
    <defs>
        <polygon id="path-1" points="0 0.668594752 54.9612949 0.668594752 54.9612949 52.7547172 0 52.7547172"></polygon>
    </defs>
    <g id="Hero-Tests" stroke="none" stroke-width="1" fill="none" fill-rule="evenodd">
        <g id="CM-hero-1-Desktop-HD---A" transform="translate(-1157.000000, -636.000000)">
            <g id="quick-hitting-facts" transform="translate(0.000000, 603.000000)">
                <g id="Group-30" transform="translate(1157.000000, 33.000000)">
                    <g id="Group-3" transform="translate(0.000000, 2.244898)">
                        <mask id="mask-2" fill="white">
                            <use xlink:href="#path-1"></use>
                        </mask>
                        <g id="Clip-2"></g>
                        <path d="M52.0195109,40.0261458 L42.0800317,49.851102 L42.0800317,42.5660875 C42.0800317,41.1633469 43.2334448,40.0261458 44.6558586,40.0261458 L52.0195109,40.0261458 Z M1.71831457,48.5060875 L1.71831457,15.356 L53.2445285,15.356 L53.2445285,38.3174577 L44.6558586,38.3174577 C42.2890394,38.3174577 40.3634588,40.2243382 40.3634588,42.5660875 L40.3634588,51.0479534 L4.29414145,51.0479534 C2.87172766,51.0479534 1.71831457,49.9107522 1.71831457,48.5060875 Z M4.29414145,2.3772828 L50.6687016,2.3772828 C52.0891802,2.3772828 53.2445285,3.51255977 53.2445285,4.91722449 L53.2445285,13.647312 L1.71831457,13.647312 L1.71831457,4.91722449 C1.71831457,3.51255977 2.87172766,2.3772828 4.29414145,2.3772828 Z M50.6687016,0.668594752 L4.29414145,0.668594752 C1.92732231,0.668594752 -0.000193525686,2.57355102 -0.000193525686,4.91722449 L-0.000193525686,48.5060875 C-0.000193525686,50.8497609 1.92732231,52.7547172 4.29414145,52.7547172 L41.2207776,52.7547172 C41.4452674,52.7547172 41.6658867,52.6623557 41.826513,52.5026472 L54.7095179,39.7817726 C54.8701443,39.6201399 54.9630366,39.4027055 54.9630366,39.1737259 L54.9630366,4.91722449 C54.9630366,2.57355102 53.0335855,0.668594752 50.6687016,0.668594752 Z" id="Fill-1" fill="#404040" mask="url(#mask-2)"></path>
                    </g>
                    <path d="M43.7755102,10.0990085 C43.7755102,11.3382003 42.7719326,12.3469388 41.5316239,12.3469388 C40.2913153,12.3469388 39.2857143,11.3382003 39.2857143,10.0990085 C39.2857143,8.86588134 40.2913153,7.85714286 41.5316239,7.85714286 C42.7719326,7.85714286 43.7755102,8.86588134 43.7755102,10.0990085" id="Fill-4" fill="#404040"></path>
                    <path d="M30.3061224,10.0990085 C30.3061224,11.3382003 29.3005215,12.3469388 28.0622362,12.3469388 C26.8199042,12.3469388 25.8163265,11.3382003 25.8163265,10.0990085 C25.8163265,8.86588134 26.8199042,7.85714286 28.0622362,7.85714286 C29.3005215,7.85714286 30.3061224,8.86588134 30.3061224,10.0990085" id="Fill-6" fill="#404040"></path>
                    <path d="M15.7142857,10.0990085 C15.7142857,11.3382003 14.7107081,12.3469388 13.4703994,12.3469388 C12.2300908,12.3469388 11.2244898,11.3382003 11.2244898,10.0990085 C11.2244898,8.86588134 12.2300908,7.85714286 13.4703994,7.85714286 C14.7107081,7.85714286 15.7142857,8.86588134 15.7142857,10.0990085" id="Fill-8" fill="#404040"></path>
                    <path d="M13.3414286,11.2244898 C12.7936735,11.2244898 12.3469388,10.8469545 12.3469388,10.3755144 L12.3469388,0.848975411 C12.3469388,0.377535341 12.7936735,0 13.3414286,0 C13.8891837,0 14.3381633,0.377535341 14.3381633,0.848975411 L14.3381633,10.3755144 C14.3381633,10.8469545 13.8891837,11.2244898 13.3414286,11.2244898" id="Fill-10" fill="#404040"></path>
                    <path d="M27.9355102,11.2244898 C27.3877551,11.2244898 26.9387755,10.8469545 26.9387755,10.3755144 L26.9387755,0.848975411 C26.9387755,0.377535341 27.3877551,0 27.9355102,0 C28.4832653,0 28.93,0.377535341 28.93,0.848975411 L28.93,10.3755144 C28.93,10.8469545 28.4832653,11.2244898 27.9355102,11.2244898" id="Fill-12" fill="#404040"></path>
                    <path d="M41.4026531,11.2244898 C40.854898,11.2244898 40.4081633,10.8469545 40.4081633,10.3755144 L40.4081633,0.848975411 C40.4081633,0.377535341 40.854898,0 41.4026531,0 C41.9504082,0 42.3993878,0.377535341 42.3993878,0.848975411 L42.3993878,10.3755144 C42.3993878,10.8469545 41.9504082,11.2244898 41.4026531,11.2244898" id="Fill-14" fill="#404040"></path>
                    <path d="M44.7949147,25.2050851 C43.8969555,25.2050851 43.1609234,25.9336076 43.1609234,26.8387416 L43.1609234,29.2873867 C43.1609234,30.185162 43.8969555,30.9192036 44.7949147,30.9192036 L47.2495818,30.9192036 C48.147541,30.9192036 48.8780529,30.185162 48.8780529,29.2873867 L48.8780529,26.8387416 C48.8780529,25.9336076 48.147541,25.2050851 47.2495818,25.2050851 L44.7949147,25.2050851 Z M47.2495818,32.5510204 L44.7949147,32.5510204 C42.9934761,32.5510204 41.5306122,31.0810975 41.5306122,29.2873867 L41.5306122,26.8387416 C41.5306122,25.0358324 42.9934761,23.5714286 44.7949147,23.5714286 L47.2495818,23.5714286 C49.0473402,23.5714286 50.5102041,25.0358324 50.5102041,26.8387416 L50.5102041,29.2873867 C50.5102041,31.0810975 49.0473402,32.5510204 47.2495818,32.5510204 Z" id="Fill-16" fill="#404040"></path>
                    <path d="M32.4491468,25.2050851 C31.5458525,25.2050851 30.8154903,25.9336076 30.8154903,26.8387416 L30.8154903,29.2873867 C30.8154903,30.185162 31.5458525,30.9192036 32.4491468,30.9192036 L34.8977919,30.9192036 C35.7955672,30.9192036 36.5314485,30.185162 36.5314485,29.2873867 L36.5314485,26.8387416 C36.5314485,25.9336076 35.7955672,25.2050851 34.8977919,25.2050851 L32.4491468,25.2050851 Z M34.8977919,32.5510204 L32.4491468,32.5510204 C30.6480773,32.5510204 29.1836735,31.0810975 29.1836735,29.2873867 L29.1836735,26.8387416 C29.1836735,25.0358324 30.6480773,23.5714286 32.4491468,23.5714286 L34.8977919,23.5714286 C36.7007012,23.5714286 38.1632653,25.0358324 38.1632653,26.8387416 L38.1632653,29.2873867 C38.1632653,31.0810975 36.7007012,32.5510204 34.8977919,32.5510204 Z" id="Fill-18" fill="#404040"></path>
                    <path d="M20.1028772,25.2050851 C19.204918,25.2050851 18.4688859,25.9336076 18.4688859,26.8387416 L18.4688859,29.2873867 C18.4688859,30.185162 19.204918,30.9192036 20.1028772,30.9192036 L22.5520241,30.9192036 C23.4536634,30.9192036 24.1860154,30.185162 24.1860154,29.2873867 L24.1860154,26.8387416 C24.1860154,25.9336076 23.4536634,25.2050851 22.5520241,25.2050851 L20.1028772,25.2050851 Z M22.5520241,32.5510204 L20.1028772,32.5510204 C18.3014386,32.5510204 16.8367347,31.0810975 16.8367347,29.2873867 L16.8367347,26.8387416 C16.8367347,25.0358324 18.3014386,23.5714286 20.1028772,23.5714286 L22.5520241,23.5714286 C24.3534627,23.5714286 25.8163265,25.0358324 25.8163265,26.8387416 L25.8163265,29.2873867 C25.8163265,31.0810975 24.3534627,32.5510204 22.5520241,32.5510204 Z" id="Fill-20" fill="#404040"></path>
                    <path d="M7.75593844,25.2050851 C6.85797926,25.2050851 6.12194714,25.9336076 6.12194714,26.8387416 L6.12194714,29.2873867 C6.12194714,30.185162 6.85797926,30.9192036 7.75593844,30.9192036 L10.2050853,30.9192036 C11.1085647,30.9192036 11.8390766,30.185162 11.8390766,29.2873867 L11.8390766,26.8387416 C11.8390766,25.9336076 11.1085647,25.2050851 10.2050853,25.2050851 L7.75593844,25.2050851 Z M10.2050853,32.5510204 L7.75593844,32.5510204 C5.95449983,32.5510204 4.48979592,31.0810975 4.48979592,29.2873867 L4.48979592,26.8387416 C4.48979592,25.0358324 5.95449983,23.5714286 7.75593844,23.5714286 L10.2050853,23.5714286 C12.0065239,23.5714286 13.4693878,25.0358324 13.4693878,26.8387416 L13.4693878,29.2873867 C13.4693878,31.0810975 12.0065239,32.5510204 10.2050853,32.5510204 Z" id="Fill-22" fill="#404040"></path>
                    <path d="M32.4491468,38.6744729 C31.5458525,38.6744729 30.8154903,39.4029954 30.8154903,40.3081294 L30.8154903,42.7567745 C30.8154903,43.6545497 31.5458525,44.3885913 32.4491468,44.3885913 L34.8977919,44.3885913 C35.7955672,44.3885913 36.5314485,43.6545497 36.5314485,42.7567745 L36.5314485,40.3081294 C36.5314485,39.4029954 35.7955672,38.6744729 34.8977919,38.6744729 L32.4491468,38.6744729 Z M34.8977919,46.0204082 L32.4491468,46.0204082 C30.6480773,46.0204082 29.1836735,44.5504852 29.1836735,42.7567745 L29.1836735,40.3081294 C29.1836735,38.5052202 30.6480773,37.0408163 32.4491468,37.0408163 L34.8977919,37.0408163 C36.7007012,37.0408163 38.1632653,38.5052202 38.1632653,40.3081294 L38.1632653,42.7567745 C38.1632653,44.5504852 36.7007012,46.0204082 34.8977919,46.0204082 Z" id="Fill-24" fill="#404040"></path>
                    <path d="M7.75526929,38.6744729 C6.85381467,38.6744729 6.12161275,39.4029954 6.12161275,40.3081294 L6.12161275,42.7567745 C6.12161275,43.6545497 6.85381467,44.3885913 7.75526929,44.3885913 L10.2039144,44.3885913 C11.1016896,44.3885913 11.8375709,43.6545497 11.8375709,42.7567745 L11.8375709,40.3081294 C11.8375709,39.4029954 11.1016896,38.6744729 10.2039144,38.6744729 L7.75526929,38.6744729 Z M10.2039144,46.0204082 L7.75526929,46.0204082 C5.95419975,46.0204082 4.48979592,44.5504852 4.48979592,42.7567745 L4.48979592,40.3081294 C4.48979592,38.5052202 5.95419975,37.0408163 7.75526929,37.0408163 L10.2039144,37.0408163 C12.0068236,37.0408163 13.4693878,38.5052202 13.4693878,40.3081294 L13.4693878,42.7567745 C13.4693878,44.5504852 12.0068236,46.0204082 10.2039144,46.0204082 Z" id="Fill-26" fill="#009DFF"></path>
                    <path d="M21.2947685,46.0204082 C20.8625807,46.0204082 20.4606864,45.8226256 20.2082402,45.4942683 L17.0940643,41.4138036 C16.6558178,40.8434987 16.7911289,40.0446877 17.3949802,39.6299205 C17.9947922,39.213233 18.8288744,39.3399675 19.2731796,39.9102724 L21.2220641,42.4680037 L26.7051948,34.2667498 C27.10305,33.6695618 27.9310734,33.4948219 28.5591595,33.873105 C29.1872455,34.251388 29.3710263,35.0386777 28.9751908,35.6358657 L22.4297665,45.4289808 C22.1894378,45.7861415 21.7814848,46.0031262 21.3391991,46.0204082 L21.2947685,46.0204082 Z" id="Fill-28" fill="#009DFF"></path>
                </g>
            </g>
        </g>
    </g>
</svg>