<?xml version="1.0" encoding="UTF-8"?>
<svg width="54px" height="55px" viewBox="0 0 54 55" version="1.1" xmlns="http://www.w3.org/2000/svg" xmlns:xlink="http://www.w3.org/1999/xlink">
    <!-- Generator: Sketch 51.2 (57519) - http://www.bohemiancoding.com/sketch -->
    <title>Group 18</title>
    <desc>Created with Sketch.</desc>
    <defs>
        <polygon id="path-1" points="0 0.52525 27.2873228 0.52525 27.2873228 28.0368431 0 28.0368431"></polygon>
        <polygon id="path-3" points="0.482578218 0.256666667 12.5775089 0.256666667 12.5775089 12.4619755 0.482578218 12.4619755"></polygon>
    </defs>
    <g id="Hero-Tests" stroke="none" stroke-width="1" fill="none" fill-rule="evenodd">
        <g id="CM-hero-1-Desktop-HD---A" transform="translate(-931.000000, -635.000000)">
            <g id="quick-hitting-facts" transform="translate(0.000000, 603.000000)">
                <g id="Group-18" transform="translate(931.000000, 32.000000)">
                    <path d="M51.3429327,52.4774412 C53.2692891,50.5346471 53.2692891,47.3850882 51.3429327,45.4422941 L20.6532891,14.4907745 C21.5948139,11.0802353 20.7425762,7.27229412 18.0832099,4.59023529 C15.5639228,2.04945098 12.0416257,1.14734314 8.8021604,1.86665686 L10.3681604,3.44601961 L14.7795861,7.89562745 L13.1649327,13.9736667 L51.3429327,52.4774412 Z" id="Fill-1" fill="#009DFF"></path>
                    <path d="M2.11669307,53.417402 C1.91138614,53.417402 1.70607921,53.3386765 1.54942574,53.1806863 C1.23665347,52.8647059 1.23665347,52.352451 1.54942574,52.0364706 L12.7156634,40.7754902 C13.0289703,40.4595098 13.5363564,40.4595098 13.8496634,40.7754902 C14.1629703,41.0914706 14.1629703,41.6037255 13.8496634,41.9191667 L2.6839604,53.1806863 C2.52730693,53.3386765 2.322,53.417402 2.11669307,53.417402" id="Fill-3" fill="#344154"></path>
                    <g id="Group-7" transform="translate(0.000000, 26.704118)">
                        <mask id="mask-2" fill="white">
                            <use xlink:href="#path-1"></use>
                        </mask>
                        <g id="Clip-6"></g>
                        <path d="M5.2935505,28.0368431 C3.8676297,28.0368431 2.53848119,27.4825294 1.55044158,26.4763529 C0.549570297,25.4669412 -0.00165742574,24.1237549 -5.34653465e-05,22.6969902 C0.00155049505,21.274 0.553847525,19.9378235 1.55471881,18.9332647 L19.5725406,0.762235294 C19.8853129,0.446254902 20.3932337,0.446254902 20.7065406,0.762235294 C21.0198475,1.07767647 21.0198475,1.59047059 20.7065406,1.90591176 L2.68711485,20.0785588 C1.98939208,20.7795392 1.60497624,21.7091471 1.60390693,22.6991471 C1.60283762,23.6929216 1.98725347,24.629 2.68711485,25.3353725 C3.37467921,26.0352745 4.2996297,26.4191961 5.2935505,26.4191961 C6.28105545,26.4191961 7.20654059,26.0341961 7.89998614,25.3353725 L25.9183426,7.16272549 C26.2316495,6.8467451 26.7390356,6.8467451 27.0523426,7.16272549 C27.3656495,7.47816667 27.3656495,7.99042157 27.0523426,8.30640196 L9.03398614,26.479049 C8.03792673,27.4836078 6.70931287,28.0368431 5.2935505,28.0368431" id="Fill-5" fill="#344154" mask="url(#mask-2)"></path>
                    </g>
                    <path d="M31.8385069,26.5864069 C31.6332,26.5864069 31.4278931,26.5076814 31.2712396,26.3496912 C30.9584673,26.0337108 30.9584673,25.5214559 31.2712396,25.2054755 L44.5675366,11.7962598 L42.5882495,9.79469118 L29.2940911,23.2028284 C28.9807842,23.5188088 28.473398,23.5188088 28.1600911,23.2028284 C27.8467842,22.886848 27.8467842,22.3745931 28.1600911,22.059152 L42.0220515,8.07836765 C42.1728238,7.92684804 42.3765267,7.84111275 42.5893188,7.84111275 L42.5898535,7.84111275 C42.8026455,7.84165196 43.0068832,7.92684804 43.1571208,8.07890686 L46.268804,11.2257696 C46.5810416,11.54175 46.5810416,12.0534657 46.2677347,12.3689069 L32.4057743,26.3496912 C32.2491208,26.5076814 32.0438139,26.5864069 31.8385069,26.5864069" id="Fill-8" fill="#344154"></path>
                    <g id="Group-12" transform="translate(41.168317, 0.282549)">
                        <mask id="mask-4" fill="white">
                            <use xlink:href="#path-3"></use>
                        </mask>
                        <g id="Clip-11"></g>
                        <path d="M2.35921188,8.17089706 L4.72826139,10.5671716 L7.87576634,9.31565196 L10.5399446,5.03212255 L7.84208317,2.31177941 L3.59533069,4.99815196 L2.35921188,8.17089706 Z M4.33689505,12.4619755 L0.482578218,8.56398529 L2.29558812,3.91055392 L8.07251881,0.256289216 L12.5775089,4.79972059 L8.95416238,10.6259461 L4.33689505,12.4619755 Z" id="Fill-10" fill="#344154" mask="url(#mask-4)"></path>
                    </g>
                    <g id="Group-15" transform="translate(0.000000, 0.282549)" fill="#344154">
                        <path d="M13.913501,20.3377598 L44.9346297,51.6230539 C45.7141545,52.4097696 46.7513822,52.843299 47.8549069,52.843299 C48.9584317,52.843299 49.9956594,52.4097696 50.7757188,51.6230539 C51.5557782,50.8363382 51.9856396,49.7902598 51.9856396,48.6773186 C51.9856396,47.5643775 51.5557782,46.518299 50.7757188,45.7315833 L19.7551248,14.4462892 L19.8807683,13.9911912 C20.7763129,10.745652 19.8706099,7.25423039 17.5165307,4.88006373 C15.6447089,2.99280882 13.1120554,2.02923039 10.511501,2.16403431 L15.6741149,7.3712402 L13.819402,14.3513873 L6.89831287,16.2219265 L1.73569901,11.0147206 C1.60043168,13.6336912 2.55692673,16.1922696 4.42821386,18.0800637 C6.78282772,20.4542304 10.2447089,21.368201 13.4622535,20.4644755 L13.913501,20.3377598 Z M47.8549069,54.4609461 C46.3231248,54.4609461 44.883303,53.8591814 43.800095,52.7667304 L13.4333822,22.1408971 C9.79239208,22.9939363 5.94502574,21.8971716 3.29421386,19.2237402 C0.664788119,16.5718775 -0.425370297,12.7935931 0.377144554,9.11722059 L0.692055446,7.67481863 L7.37789703,14.4177108 L12.5100356,13.030848 L13.8851644,7.85491667 L7.19932277,1.11202451 L8.62952079,0.794426471 C12.2758574,-0.0149362745 16.021105,1.08398529 18.6505307,3.73584804 C21.3013426,6.40927941 22.3877584,10.2889363 21.5430059,13.9615343 L51.9097188,44.5879069 C52.9929267,45.6803578 53.5896,47.1324657 53.5896,48.6773186 C53.5896,50.2221716 52.9929267,51.6742794 51.9097188,52.7667304 C50.8270455,53.8591814 49.3866891,54.4609461 47.8549069,54.4609461 Z" id="Fill-13"></path>
                    </g>
                    <path d="M51.3429327,53.2862647 C51.1376257,53.2862647 50.9323188,53.2075392 50.7756653,53.049549 L42.0463782,44.2452353 C41.7330713,43.9297941 41.7330713,43.4175392 42.0463782,43.1015588 C42.3596851,42.7855784 42.8670713,42.7855784 43.1803782,43.1015588 L51.9102,51.9053333 C52.2229723,52.2213137 52.2229723,52.7335686 51.9102,53.049549 C51.7535465,53.2075392 51.5482396,53.2862647 51.3429327,53.2862647" id="Fill-16" fill="#344154"></path>
                </g>
            </g>
        </g>
    </g>
</svg>