<?xml version="1.0" encoding="UTF-8" standalone="no"?>
<svg width="61px" height="59px" viewBox="0 0 61 59" version="1.1" xmlns="http://www.w3.org/2000/svg" xmlns:xlink="http://www.w3.org/1999/xlink">
    <!-- Generator: Sketch 42 (36781) - http://www.bohemiancoding.com/sketch -->
    <title>servicing-icon</title>
    <desc>Created with Sketch.</desc>
    <defs>
        <path d="M1.23027737,54.606541 C0.548637204,54.606541 1.07136522e-14,54.0636721 1.07136522e-14,53.3952459 L1.07136522e-14,53.3952459 L1.07136522e-14,1.47029508 C1.07136522e-14,0.796409836 0.550484467,0.259 1.23027737,0.259 L1.23027737,0.259 L44.7462592,0.259 C45.4278994,0.259 45.9759209,0.801262295 45.9759209,1.47029508 L45.9759209,1.47029508 L45.9759209,53.3952459 C45.9759209,54.0685246 45.4260521,54.606541 44.7462592,54.606541 L44.7462592,54.606541 L1.23027737,54.606541 Z" id="path-1"></path>
        <path d="M1.21426775,46.5836066 C0.871908284,46.5836066 0.599744822,46.3149016 0.599744822,45.9788689 L0.599744822,45.9788689 L0.599744822,0.847360656 C0.599744822,0.513147541 0.874371302,0.242622951 1.21426775,0.242622951 L1.21426775,0.242622951 L37.3732156,0.242622951 C37.7155751,0.242622951 37.9877385,0.511934426 37.9877385,0.847360656 L37.9877385,0.847360656 L37.9877385,45.9788689 C37.9877385,46.3124754 37.7131121,46.5836066 37.3732156,46.5836066 L37.3732156,46.5836066 L1.21426775,46.5836066 L1.21426775,46.5836066 Z" id="path-3"></path>
        <path d="M1.33741864,47.7967213 C0.652699704,47.7967213 0.106525518,47.254459 0.106525518,46.5854262 L0.106525518,46.5854262 L0.106525518,1.45391803 C0.106525518,0.784885246 0.65762574,0.242622951 1.33741864,0.242622951 L1.33741864,0.242622951 L37.4963665,0.242622951 C38.1804697,0.242622951 38.7266439,0.784885246 38.7266439,1.45391803 L38.7266439,1.45391803 L38.7266439,46.5854262 C38.7266439,47.254459 38.1755436,47.7967213 37.4963665,47.7967213 L37.4963665,47.7967213 L1.33741864,47.7967213 L1.33741864,47.7967213 Z" id="path-5"></path>
        <path d="M1.50059357,8.55670492 C0.82695821,8.55670492 0.270931953,8.01383607 0.270931953,7.34480328 L0.270931953,7.34480328 L0.270931953,1.61586885 C0.270931953,0.951688525 0.822032175,0.40457377 1.50059357,0.40457377 L1.50059357,0.40457377 L7.31700999,0.40457377 C7.99064534,0.40457377 8.5466716,0.946836066 8.5466716,1.61586885 L8.5466716,1.61586885 L8.5466716,7.34480328 C8.5466716,8.00898361 7.99557138,8.55670492 7.31700999,8.55670492 L7.31700999,8.55670492 L1.50059357,8.55670492 Z" id="path-7"></path>
        <path d="M1.50059357,8.45965574 C0.82695821,8.45965574 0.270931953,7.91678689 0.270931953,7.2477541 L0.270931953,7.2477541 L0.270931953,1.51881967 C0.270931953,0.854639344 0.822032175,0.306918033 1.50059357,0.306918033 L1.50059357,0.306918033 L7.31700999,0.306918033 C7.99064534,0.306918033 8.5466716,0.849786885 8.5466716,1.51881967 L8.5466716,1.51881967 L8.5466716,7.2477541 C8.5466716,7.91193443 7.99557138,8.45965574 7.31700999,8.45965574 L7.31700999,8.45965574 L1.50059357,8.45965574 Z" id="path-9"></path>
        <path d="M1.50059357,8.51606557 C0.82695821,8.51606557 0.270931953,7.97380328 0.270931953,7.30416393 L0.270931953,7.30416393 L0.270931953,1.57522951 C0.270931953,0.911655738 0.822032175,0.363934426 1.50059357,0.363934426 L1.50059357,0.363934426 L7.31700999,0.363934426 C7.99064534,0.363934426 8.5466716,0.906196721 8.5466716,1.57522951 L8.5466716,1.57522951 L8.5466716,7.30416393 C8.5466716,7.96834426 7.99557138,8.51606557 7.31700999,8.51606557 L7.31700999,8.51606557 L1.50059357,8.51606557 Z" id="path-11"></path>
        <path d="M10.7190533,5.43718033 L10.5361742,5.16786885 L10.2073613,5.16786885 L1.19948964,5.16786885 C0.858977441,5.16786885 0.583119453,4.89613115 0.583119453,4.56131148 L0.583119453,4.56131148 L0.583119453,1.09908197 C0.583119453,0.76547541 0.858977441,0.493131148 1.19948964,0.493131148 L1.19948964,0.493131148 L14.2263905,0.491918033 C14.9794582,0.438540984 15.7590033,0.438540984 16.5564053,0.493131148 L16.5564053,0.493131148 L30.9182618,0.493131148 C31.2593898,0.493131148 31.534632,0.764868852 31.534632,1.09908197 L31.534632,1.09908197 L31.534632,4.56131148 C31.534632,4.89613115 31.258774,5.16786885 30.9182618,5.16786885 L30.9182618,5.16786885 L20.5304845,5.16786885 L20.2022874,5.16786885 L20.0194083,5.43718033 C18.9874038,6.95539344 17.2589811,7.8852459 15.3692308,7.8852459 L15.3692308,7.8852459 C13.4794804,7.8852459 11.7510577,6.95539344 10.7190533,5.43718033" id="path-13"></path>
        <path d="M10.8231158,6.38098361 L1.81524408,6.38098361 C1.13483543,6.38098361 0.583119453,5.83811475 0.583119453,5.16786885 L0.583119453,5.16786885 L0.583119453,1.70563934 C0.583119453,1.03660656 1.13483543,0.493737705 1.81524408,0.493737705 L1.81524408,0.493737705 L14.7978107,0.493737705 C15.5804345,0.437934426 16.3895359,0.437934426 17.1721598,0.493737705 L17.1721598,0.493737705 L31.5340163,0.493737705 C32.2144249,0.493737705 32.7667567,1.036 32.7667567,1.70563934 L32.7667567,1.70563934 L32.7667567,5.16786885 C32.7667567,5.83811475 32.2144249,6.38098361 31.5340163,6.38098361 L31.5340163,6.38098361 L21.1462389,6.38098361 C20.0329549,8.01929508 18.137047,9.09836066 15.9849852,9.09836066 L15.9849852,9.09836066 C13.8329234,9.09836066 11.9363998,8.01929508 10.8231158,6.38098361" id="path-15"></path>
        <path d="M0.21366679,0.549540984 C0.21366679,0.259606557 0.452579512,0.0242622951 0.746910133,0.0242622951 L0.746910133,0.0242622951 C1.04185651,0.0242622951 1.28076923,0.259606557 1.28076923,0.549540984 L1.28076923,0.549540984 C1.28076923,0.840081967 1.04185651,1.07542623 0.746910133,1.07542623 L0.746910133,1.07542623 C0.452579512,1.07542623 0.21366679,0.840081967 0.21366679,0.549540984" id="path-17"></path>
        <path d="M0.213051036,1.15609836 C0.213051036,0.531344262 0.727821746,0.0242622951 1.36266457,0.0242622951 L1.36266457,0.0242622951 C1.9975074,0.0242622951 2.51227811,0.531344262 2.51227811,1.15609836 L2.51227811,1.15609836 C2.51227811,1.78206557 1.9975074,2.28854098 1.36266457,2.28854098 L1.36266457,2.28854098 C0.727821746,2.28854098 0.213051036,1.78206557 0.213051036,1.15609836" id="path-19"></path>
        <path d="M0,33.6032787 L0,3.31604918 C0,1.75295082 1.28631102,0.485245902 2.87372596,0.485245902 L2.87372596,0.485245902 C4.45744638,0.485245902 5.74683617,1.75234426 5.74683617,3.31604918 L5.74683617,3.31604918 L5.74683617,33.6032787 L7.00031749e-14,33.6032787 L0,33.6032787 Z" id="path-21"></path>
        <path d="M1.84972633,12.7377049 C1.1650074,12.7377049 0.615754438,12.1972623 0.615754438,11.5282295 L0.615754438,11.5282295 L0.615754438,0.78852459 L0,0.78852459 L0.615754438,0.181967213 L0.615754438,0.78852459 L5.13108173,0.78852459 L5.13108173,11.5282295 C5.13108173,12.1954426 4.57936575,12.7377049 3.89710984,12.7377049 L3.89710984,12.7377049 L1.84972633,12.7377049 L1.84972633,12.7377049 Z M5.13108173,0.78852459 L5.13108173,0.181967213 L5.74683617,0.78852459 L5.13108173,0.78852459 Z" id="path-23"></path>
        <path d="M1.84972633,13.3442623 C0.823879438,13.3442623 0,12.5308689 0,11.5282295 L0,11.5282295 L0,0.181967213 L5.74683617,0.181967213 L5.74683617,11.5282295 C5.74683617,12.5308689 4.9192622,13.3442623 3.89710984,13.3442623 L3.89710984,13.3442623 L1.84972633,13.3442623 L1.84972633,13.3442623 Z" id="path-25"></path>
        <path d="M0.16379068,2.10536066 C0.16379068,1.19552459 0.901464497,0.45552459 1.81955436,0.43247541 L1.81955436,0.43247541 L1.81955436,3.7782459 C0.901464497,3.75519672 0.16379068,3.01519672 0.16379068,2.10536066" id="path-27"></path>
    </defs>
    <g id="Current-design" stroke="none" stroke-width="1" fill="none" fill-rule="evenodd">
        <g id="CR-LP-Help" transform="translate(-953.000000, -406.000000)">
            <g id="Group-3" transform="translate(197.000000, 378.000000)">
                <g id="servicing-icon" transform="translate(756.000000, 26.000000)">
                    <g id="svg8886">
                        <g id="g8894" transform="translate(30.599442, 30.877456) scale(-1, 1) rotate(-180.000000) translate(-30.599442, -30.877456) translate(0.099442, 0.877456)">
                            <g id="g8918" transform="translate(0.393159, 0.362703)">
                                <g id="g8920-Clipped" transform="translate(0.000000, 0.000000)">
                                    <mask id="mask-2" fill="white">
                                        <use xlink:href="#path-1"></use>
                                    </mask>
                                    <g id="path8924"></g>
                                    <g id="g8920" mask="url(#mask-2)">
                                        <g transform="translate(0.000000, 0.000000)" id="g8926">
                                            <g transform="translate(0.000000, 0.017954)">
                                                <path d="M5.55111512e-17,53.3770492 C5.55111512e-17,54.046082 0.548637204,54.5883443 1.22966161,54.5883443 L44.7462592,54.5883443 C45.4254364,54.5883443 45.9765366,54.0503279 45.9765366,53.3770492 L45.9765366,1.45209836 C45.9765366,0.783065574 45.4278994,0.240803279 44.7462592,0.240803279 L1.22966161,0.240803279 C0.550484467,0.240803279 5.55111512e-17,0.778819672 5.55111512e-17,1.45209836 L5.55111512e-17,53.3770492 Z" id="path8928" stroke="#455864" stroke-width="2.59999985"></path>
                                            </g>
                                        </g>
                                    </g>
                                </g>
                            </g>
                            <g id="g8930" transform="translate(4.087686, 4.608605)">
                                <g id="g8932-Clipped">
                                    <mask id="mask-4" fill="white">
                                        <use xlink:href="#path-3"></use>
                                    </mask>
                                    <g id="path8936"></g>
                                    <g id="g8932" mask="url(#mask-4)">
                                        <g transform="translate(-0.615754, -1.213115)" id="g8938">
                                            <g transform="translate(0.599314, 0.487126)">
                                                <path d="M1.8189894e-12,46.704918 C1.8189894e-12,47.3739508 0.546174186,47.9162131 1.23027737,47.9162131 L37.389841,47.9162131 C38.0690181,47.9162131 38.6201183,47.3739508 38.6201183,46.704918 L38.6201183,1.57340984 C38.6201183,0.904377049 38.0739442,0.362114754 37.389841,0.362114754 L1.23027737,0.362114754 C0.551100222,0.362114754 1.8189894e-12,0.904377049 1.8189894e-12,1.57340984 L1.8189894e-12,46.704918 Z" id="path8940" fill="#FFEADA" fill-rule="nonzero"></path>
                                            </g>
                                        </g>
                                    </g>
                                </g>
                            </g>
                            <g id="g8942" transform="translate(3.964535, 4.002047)">
                                <g id="g8944-Clipped" transform="translate(-0.000000, 0.000000)">
                                    <mask id="mask-6" fill="white">
                                        <use xlink:href="#path-5"></use>
                                    </mask>
                                    <g id="path8948"></g>
                                    <g id="g8944" mask="url(#mask-6)">
                                        <g transform="translate(-0.492604, -0.606557)" id="g8950">
                                            <g transform="translate(0.599314, 0.487066)">
                                                <path d="M-1.8189894e-12,46.704918 C-1.8189894e-12,47.3739508 0.546174186,47.9162131 1.23027737,47.9162131 L37.389841,47.9162131 C38.0690181,47.9162131 38.6201183,47.3739508 38.6201183,46.704918 L38.6201183,1.57340984 C38.6201183,0.904377049 38.0739442,0.362114754 37.389841,0.362114754 L1.23027737,0.362114754 C0.551100222,0.362114754 -1.8189894e-12,0.904377049 -1.8189894e-12,1.57340984 L-1.8189894e-12,46.704918 Z" id="path8952" stroke="#455864" stroke-width="2.59999985"></path>
                                            </g>
                                        </g>
                                    </g>
                                </g>
                            </g>
                            <g id="g8954" transform="translate(8.397967, 35.543031)">
                                <g id="g8956-Clipped" transform="translate(-0.000000, 0.000000)">
                                    <mask id="mask-8" fill="white">
                                        <use xlink:href="#path-7"></use>
                                    </mask>
                                    <g id="path8960"></g>
                                    <g id="g8956" mask="url(#mask-8)" stroke="#445D66" stroke-width="2.59999985">
                                        <g id="g8962" transform="translate(0.270932, 0.066175)">
                                            <path d="M0,7.27868852 C0,7.94772131 0.556026257,8.49059016 1.23027737,8.49059016 L7.04546228,8.49059016 C7.72525518,8.49059016 8.27573964,7.94286885 8.27573964,7.27868852 L8.27573964,1.5497541 C8.27573964,0.880721311 7.71971339,0.338459016 7.04546228,0.338459016 L1.23027737,0.338459016 C0.550484467,0.338459016 0,0.88557377 0,1.5497541 L0,7.27868852 Z" id="path8964"></path>
                                        </g>
                                    </g>
                                </g>
                            </g>
                            <g id="g8966" transform="translate(11.427485, 38.606328)" stroke-linecap="round" stroke-width="1.29999992" stroke="#455864" stroke-linejoin="round">
                                <polyline id="path8968" points="0 1.21311475 0.82695821 0.511327869 2.14528846 2.32311475"></polyline>
                            </g>
                            <g id="g8970" transform="translate(21.312376, 41.382116)" stroke="#455864" stroke-width="1.29999992" stroke-linecap="square">
                                <path d="M0,0 L12.906213,0" id="path8972"></path>
                            </g>
                            <g id="g8974" transform="translate(21.312376, 38.664739)" stroke="#455864" stroke-width="1.29999992" stroke-linecap="square">
                                <path d="M0,0 L7.84840607,0" id="path8976"></path>
                            </g>
                            <g id="g8978" transform="translate(8.397967, 23.411883)">
                                <g id="g8980-Clipped">
                                    <mask id="mask-10" fill="white">
                                        <use xlink:href="#path-9"></use>
                                    </mask>
                                    <g id="path8984"></g>
                                    <g id="g8980" mask="url(#mask-10)">
                                        <g transform="translate(0.000000, -0.606557)" id="g8986">
                                            <g transform="translate(0.270932, 0.575684)">
                                                <path d="M0,7.27868852 C0,7.94772131 0.556026257,8.49059016 1.23027737,8.49059016 L7.04546228,8.49059016 C7.72525518,8.49059016 8.27573964,7.94286885 8.27573964,7.27868852 L8.27573964,1.5497541 C8.27573964,0.880721311 7.71971339,0.338459016 7.04546228,0.338459016 L1.23027737,0.338459016 C0.550484467,0.338459016 0,0.88557377 0,1.5497541 L0,7.27868852 Z" id="path8988" stroke="#445D66" stroke-width="2.59999985"></path>
                                            </g>
                                        </g>
                                    </g>
                                </g>
                            </g>
                            <g id="g8990" transform="translate(11.427485, 26.378131)" stroke-linecap="round" stroke-width="1.29999992" stroke="#455864" stroke-linejoin="round">
                                <polyline id="path8992" points="0 1.21311475 0.82695821 0.511327869 2.14528846 2.32311475"></polyline>
                            </g>
                            <g id="g8994" transform="translate(21.312376, 29.153920)" stroke="#455864" stroke-width="1.29999992" stroke-linecap="square">
                                <path d="M0,0 L12.906213,0" id="path8996"></path>
                            </g>
                            <g id="g8998" transform="translate(21.312376, 26.436542)" stroke="#455864" stroke-width="1.29999992" stroke-linecap="square">
                                <path d="M0,0 L7.84840607,0" id="path9000"></path>
                            </g>
                            <g id="g9002" transform="translate(8.397967, 10.674179)">
                                <g id="g9004-Clipped" transform="translate(0.000000, 0.000000)">
                                    <mask id="mask-12" fill="white">
                                        <use xlink:href="#path-11"></use>
                                    </mask>
                                    <g id="path9008"></g>
                                    <g id="g9004" mask="url(#mask-12)" stroke="#445D66" stroke-width="2.59999985">
                                        <g id="g9010" transform="translate(0.270932, 0.025718)">
                                            <path d="M0,7.27868852 C0,7.94772131 0.556026257,8.49059016 1.23027737,8.49059016 L7.04546228,8.49059016 C7.72525518,8.49059016 8.27573964,7.94286885 8.27573964,7.27868852 L8.27573964,1.5497541 C8.27573964,0.880721311 7.71971339,0.338459016 7.04546228,0.338459016 L1.23027737,0.338459016 C0.550484467,0.338459016 0,0.88557377 0,1.5497541 L0,7.27868852 Z" id="path9012"></path>
                                        </g>
                                    </g>
                                </g>
                            </g>
                            <g id="g9014" transform="translate(11.427485, 13.697018)" stroke-linecap="round" stroke-width="1.29999992" stroke="#455864" stroke-linejoin="round">
                                <polyline id="path9016" points="0 1.21311475 0.82695821 0.511327869 2.14528846 2.32311475"></polyline>
                            </g>
                            <g id="g9018" transform="translate(21.312376, 16.472867)" stroke="#455864" stroke-width="1.29999992" stroke-linecap="square">
                                <path d="M-2.84217077e-15,0 L12.906213,0" id="path9020"></path>
                            </g>
                            <g id="g9022" transform="translate(21.312376, 13.755490)" stroke="#455864" stroke-width="1.29999992" stroke-linecap="square">
                                <path d="M0,0 L7.84840607,0" id="path9024"></path>
                            </g>
                            <g id="g9026" transform="translate(7.782212, 50.100408)">
                                <g id="g9028-Clipped">
                                    <mask id="mask-14" fill="white">
                                        <use xlink:href="#path-13"></use>
                                    </mask>
                                    <g id="path9032"></g>
                                    <g id="g9028" mask="url(#mask-14)">
                                        <g transform="translate(-0.615754, -0.606557)" id="g9034">
                                            <g transform="translate(0.355537, 0.315410)">
                                                <path d="M10.4678254,6.06557377 L1.45933802,6.06557377 C0.779545118,6.06557377 0.227213388,5.52270492 0.227213388,4.85245902 L0.227213388,1.39083607 C0.227213388,0.721196721 0.778929364,0.177721311 1.45933802,0.177721311 L14.4425203,0.177721311 C15.2251442,0.12252459 16.0336298,0.12252459 16.8162537,0.177721311 L31.178726,0.177721311 C31.8591346,0.177721311 32.4108506,0.720590164 32.4108506,1.39083607 L32.4108506,4.85245902 C32.4108506,5.52209836 31.8591346,6.06557377 31.178726,6.06557377 L20.7909486,6.06557377 C19.6776646,7.70388525 17.7817567,8.78295082 15.6296949,8.78295082 C13.4776331,8.78295082 11.5811095,7.70388525 10.4678254,6.06557377" id="path9036" fill="#FFFFFF" fill-rule="nonzero"></path>
                                            </g>
                                        </g>
                                    </g>
                                </g>
                            </g>
                            <g id="g9038" transform="translate(7.166458, 49.493851)">
                                <g id="g9040-Clipped">
                                    <mask id="mask-16" fill="white">
                                        <use xlink:href="#path-15"></use>
                                    </mask>
                                    <g id="path9044"></g>
                                    <g id="g9040" mask="url(#mask-16)" stroke="#455864" stroke-width="2.59999985">
                                        <g id="g9046" transform="translate(0.355598, 0.315410)">
                                            <path d="M10.4678254,6.06557377 L1.45933802,6.06557377 C0.778929364,6.06557377 0.227213388,5.52270492 0.227213388,4.85306557 L0.227213388,1.39083607 C0.227213388,0.721196721 0.778929364,0.177721311 1.45933802,0.177721311 L14.4425203,0.177721311 C15.2251442,0.12252459 16.0336298,0.12252459 16.8162537,0.177721311 L31.178726,0.177721311 C31.8591346,0.177721311 32.4108506,0.721196721 32.4108506,1.39083607 L32.4108506,4.85306557 C32.4108506,5.52209836 31.8591346,6.06557377 31.178726,6.06557377 L20.7909486,6.06557377 C19.6776646,7.70388525 17.7811409,8.78295082 15.6296949,8.78295082 C13.4776331,8.78295082 11.5811095,7.70388525 10.4678254,6.06557377 Z" id="path9048"></path>
                                        </g>
                                    </g>
                                </g>
                            </g>
                            <g id="g9050" transform="translate(21.944565, 53.739752)">
                                <g id="g9052-Clipped">
                                    <mask id="mask-18" fill="white">
                                        <use xlink:href="#path-17"></use>
                                    </mask>
                                    <g id="path9056"></g>
                                    <g id="g9052" mask="url(#mask-18)">
                                        <g transform="translate(-0.615754, -0.606557)" id="g9058">
                                            <g transform="translate(0.131340, 0.024262)">
                                                <path d="M1.23150888,0 C1.8663517,0 2.38112241,0.507081967 2.38112241,1.13244262 C2.38112241,1.75780328 1.8663517,2.26427869 1.23150888,2.26427869 C0.59666605,2.26427869 0.0818953402,1.75780328 0.0818953402,1.13244262 C0.0818953402,0.507081967 0.59666605,0 1.23150888,0" id="path9060" fill="#FFFFFF" fill-rule="nonzero"></path>
                                            </g>
                                        </g>
                                    </g>
                                </g>
                            </g>
                            <g id="g9062" transform="translate(21.328810, 53.133195)">
                                <g id="g9064-Clipped">
                                    <mask id="mask-20" fill="white">
                                        <use xlink:href="#path-19"></use>
                                    </mask>
                                    <g id="path9068"></g>
                                    <g id="g9064" mask="url(#mask-20)" stroke="#455864" stroke-width="2.59999985">
                                        <g id="g9070" transform="translate(0.131340, 0.024262)">
                                            <path d="M1.23150888,0 C1.8663517,0 2.38112241,0.507081967 2.38112241,1.13244262 C2.38112241,1.75780328 1.8663517,2.26427869 1.23150888,2.26427869 C0.59666605,2.26427869 0.0818953402,1.75780328 0.0818953402,1.13244262 C0.0818953402,0.507081967 0.59666605,0 1.23150888,0 Z" id="path9072"></path>
                                        </g>
                                    </g>
                                </g>
                            </g>
                            <g id="g9074" transform="translate(52.116532, 4.608605)">
                                <g id="g9076-Clipped">
                                    <mask id="mask-22" fill="white">
                                        <use xlink:href="#path-21"></use>
                                    </mask>
                                    <g id="path9080"></g>
                                    <g id="g9076" mask="url(#mask-22)">
                                        <g id="g9082" transform="translate(0.000000, 0.242623)" fill-rule="nonzero" fill="#DDDEDD">
                                            <path d="M0,33.3606557 L5.74683617,33.3606557 L5.74683617,3.07342623 C5.74683617,1.51032787 4.45744638,0.242622951 2.87372596,0.242622951 C1.28631102,0.242622951 0,1.51032787 0,3.07342623 L0,33.3606557 Z" id="path9084"></path>
                                        </g>
                                        <g id="g9086" transform="translate(0.000000, 0.242623)" stroke="#455864" stroke-width="2.59999985">
                                            <path d="M0,33.3606557 L5.74683617,33.3606557 L5.74683617,3.07342623 C5.74683617,1.50972131 4.45744638,0.242622951 2.87372596,0.242622951 C1.28631102,0.242622951 0,1.51032787 0,3.07342623 L0,33.3606557 Z" id="path9088"></path>
                                        </g>
                                    </g>
                                </g>
                            </g>
                            <g id="g9090" transform="translate(52.116532, 36.756146)">
                                <g id="g9092-Clipped">
                                    <mask id="mask-24" fill="white">
                                        <use xlink:href="#path-23"></use>
                                    </mask>
                                    <g id="path9096"></g>
                                    <g id="g9092" mask="url(#mask-24)" fill-rule="nonzero" fill="#DDDEDD">
                                        <g id="g9098" transform="translate(0.000000, 0.003336)">
                                            <path d="M0,11.5245902 C0,12.5278361 0.823263683,13.3412295 1.85034209,13.3412295 L3.89710984,13.3412295 C4.91864645,13.3412295 5.74683617,12.5272295 5.74683617,11.5245902 L5.74683617,0.178327869 L0,0.178327869 L0,11.5245902 Z" id="path9100"></path>
                                        </g>
                                    </g>
                                </g>
                            </g>
                            <g id="g9102" transform="translate(52.116532, 36.756146)">
                                <g id="g9104-Clipped">
                                    <mask id="mask-26" fill="white">
                                        <use xlink:href="#path-25"></use>
                                    </mask>
                                    <g id="path9108"></g>
                                    <g id="g9104" mask="url(#mask-26)" stroke="#455864" stroke-width="2.59999985">
                                        <g id="g9110" transform="translate(0.000000, 0.003275)">
                                            <path d="M0,11.5245902 C0,12.5278361 0.823263683,13.3412295 1.84972633,13.3412295 L3.89710984,13.3412295 C4.91864645,13.3412295 5.74683617,12.5278361 5.74683617,11.5245902 L5.74683617,0.178934426 L0,0.178934426 L0,11.5245902 Z" id="path9112"></path>
                                        </g>
                                    </g>
                                </g>
                            </g>
                            <g id="g9114" transform="translate(58.274076, 37.969260)">
                                <g id="g9116-Clipped">
                                    <mask id="mask-28" fill="white">
                                        <use xlink:href="#path-27"></use>
                                    </mask>
                                    <g id="path9120"></g>
                                    <g id="g9116" mask="url(#mask-28)" fill-rule="nonzero" fill="#455864">
                                        <g transform="translate(-3.078772, -3.032787)" id="path9122">
                                            <polygon points="0.164406435 9.84381967 7.97709874 9.84381967 7.97709874 0.43247541 0.164406435 0.43247541"></polygon>
                                        </g>
                                    </g>
                                </g>
                            </g>
                            <polygon id="path9124" fill="#455864" fill-rule="nonzero" points="59.3005452 38.3538179 60.4501587 38.3538179 60.4501587 48.5433752 59.3005452 48.5433752"></polygon>
                            <polygon id="path9126" fill="#445D66" fill-rule="nonzero" points="57.0019339 47.2696048 59.5874867 47.2696048 59.5874867 48.4020474 57.0019339 48.4020474"></polygon>
                        </g>
                    </g>
                </g>
            </g>
        </g>
    </g>
</svg>