<svg xmlns="http://www.w3.org/2000/svg" enable-background="new 0 0 24 24" height="18px" viewBox="0 0 32 32" width="18px"
     fill="#7D838A">
  <g>
    <path d="M16 32c-8.837 0-16-7.163-16-16s7.163-16 16-16c8.837 0 16 7.163 16 16s-7.163 16-16 16zM16 28.8c7.069 0 12.8-5.731 12.8-12.8s-5.731-12.8-12.8-12.8c-7.069 0-12.8 5.731-12.8 12.8s5.731 12.8 12.8 12.8z"></path>
	<path d="M8.986 11.248l2.263-2.263 11.766 11.766-2.263 2.263z"></path>
	<path d="M20.752 8.986l2.263 2.263-11.766 11.766-2.263-2.263z"></path>
  </g>
</svg>
