<?xml version="1.0" encoding="UTF-8"?>
<svg width="60px" height="55px" viewBox="0 0 60 55" version="1.1" xmlns="http://www.w3.org/2000/svg" xmlns:xlink="http://www.w3.org/1999/xlink">
    <!-- Generator: Sketch 51.2 (57519) - http://www.bohemiancoding.com/sketch -->
    <title>Group 4</title>
    <desc>Created with Sketch.</desc>
    <defs>
        <polygon id="path-1" points="0 0.421398374 59.6216418 0.421398374 59.6216418 6.2601626 0 6.2601626"></polygon>
        <polygon id="path-3" points="0.214701493 0.285284553 52.2427612 0.285284553 52.2427612 36.1937561 0.214701493 36.1937561"></polygon>
        <polygon id="path-5" points="0 40.853061 59.6216418 40.853061 59.6216418 0.447288618 0 0.447288618"></polygon>
    </defs>
    <g id="Hero-Tests" stroke="none" stroke-width="1" fill="none" fill-rule="evenodd">
        <g id="CM-hero-1-Desktop-HD---A" transform="translate(-456.000000, -635.000000)">
            <g id="quick-hitting-facts" transform="translate(0.000000, 603.000000)">
                <g id="Group-4" transform="translate(456.000000, 32.000000)">
                    <g id="Group-33" transform="translate(0.000000, 13.861789)">
                        <path d="M31.6681791,20.2226057 L26.8677313,20.2226057 C26.4969851,20.2226057 26.1960896,19.922565 26.1960896,19.551874 C26.1960896,19.1811829 26.4969851,18.8811423 26.8677313,18.8811423 L30.3248955,18.8811423 L30.3248955,18.8265894 C30.3248955,18.4330935 30.0307164,18.0932561 29.6407164,18.0364675 L26.9290746,17.6420772 C26.5619104,17.5884187 26.3075821,17.2481341 26.3608657,16.8814675 C26.414597,16.5148008 26.7571343,16.2617114 27.1225075,16.3144756 L29.8341493,16.7088659 C30.8796716,16.8608984 31.6681791,17.771752 31.6681791,18.8265894 L31.6681791,20.2226057 Z" id="Fill-1" fill="#344154"></path>
                        <path d="M28.7139851,22.164061 L44.6399552,22.164061 L44.6399552,24.8384919 C44.6399552,25.4211341 45.1145821,25.8946707 45.6975672,25.8946707 L46.6638358,25.8946707 C47.2472687,25.8946707 47.7214478,25.4211341 47.7214478,24.8384919 L47.7214478,15.3270691 L49.7726418,14.5789797 L49.7726418,13.5912154 L48.0178657,13.5912154 C47.2002537,13.5912154 46.4489104,13.1458496 46.0575672,12.429061 L44.059209,8.76954878 C43.7856269,8.26873577 43.2608507,7.95751626 42.6895075,7.95751626 L30.6644328,7.95751626 C30.0935373,7.95751626 29.5683134,8.26873577 29.2947313,8.76999593 L27.2959254,12.429061 C26.9050299,13.1458496 26.1536866,13.5912154 25.3360746,13.5912154 L23.5812985,13.5912154 L23.5812985,14.5789797 L25.6324925,15.3270691 L25.6324925,24.8384919 C25.6324925,25.4211341 26.1071194,25.8946707 26.6901045,25.8946707 L27.6568209,25.8946707 C28.2393582,25.8946707 28.7139851,25.4211341 28.7139851,24.8384919 L28.7139851,22.164061 Z M46.6638358,27.2361341 L45.6975672,27.2361341 C44.3739851,27.2361341 43.2966716,26.1607276 43.2966716,24.8384919 L43.2966716,23.5055244 L30.0572687,23.5055244 L30.0572687,24.8384919 C30.0572687,26.1607276 28.980403,27.2361341 27.6568209,27.2361341 L26.6901045,27.2361341 C25.3660746,27.2361341 24.289209,26.1607276 24.289209,24.8384919 L24.289209,16.2651992 L22.9557761,15.7786951 C22.5263731,15.6212967 22.2380149,15.2094675 22.2380149,14.7538171 L22.2380149,13.3408089 C22.2380149,12.738939 22.7283134,12.249752 23.3305522,12.249752 L25.3360746,12.249752 C25.6620448,12.249752 25.9611493,12.0726789 26.1165224,11.7869472 L28.1157761,8.12743496 C28.6253284,7.19511789 29.6014478,6.61605285 30.6644328,6.61605285 L42.6895075,6.61605285 C43.7529403,6.61605285 44.7299552,7.19511789 45.2386119,8.12743496 L47.2369701,11.7869472 C47.3932388,12.0726789 47.6923433,12.249752 48.0178657,12.249752 L50.0238358,12.249752 C50.6260746,12.249752 51.1159254,12.738939 51.1159254,13.3408089 L51.1159254,14.7538171 C51.1159254,15.2099146 50.8280149,15.6217439 50.3990597,15.7786951 L49.0647313,16.2651992 L49.0647313,24.8384919 C49.0647313,26.1607276 47.9878657,27.2361341 46.6638358,27.2361341 Z" id="Fill-3" fill="#344154"></path>
                        <path d="M44.6987015,13.6251098 L28.6558657,13.6251098 C28.2851194,13.6251098 27.9842239,13.3250691 27.9842239,12.954378 C27.9842239,12.583687 28.2851194,12.2836463 28.6558657,12.2836463 L44.6987015,12.2836463 C45.0694478,12.2836463 45.3703433,12.583687 45.3703433,12.954378 C45.3703433,13.3250691 45.0694478,13.6251098 44.6987015,13.6251098" id="Fill-5" fill="#344154"></path>
                        <path d="M46.4862537,20.2226057 L41.685806,20.2226057 L41.685806,18.8265894 C41.685806,17.771752 42.4743134,16.8608984 43.5193881,16.7088659 L46.2323731,16.3144756 C46.5990896,16.2621585 46.9402836,16.5148008 46.9935672,16.8814675 C47.0468507,17.2481341 46.7929701,17.5884187 46.4253582,17.6420772 L43.7132687,18.0364675 C43.3237164,18.0932561 43.0290896,18.4330935 43.0290896,18.8265894 L43.0290896,18.8811423 L46.4862537,18.8811423 C46.857,18.8811423 47.1578955,19.1811829 47.1578955,19.551874 C47.1578955,19.922565 46.857,20.2226057 46.4862537,20.2226057" id="Fill-7" fill="#344154"></path>
                        <path d="M39.6950597,20.2882927 L33.6592388,20.2882927 C33.2880448,20.2882927 32.987597,19.988252 32.987597,19.617561 C32.987597,19.2468699 33.2880448,18.9468293 33.6592388,18.9468293 L39.6950597,18.9468293 C40.065806,18.9468293 40.3667015,19.2468699 40.3667015,19.617561 C40.3667015,19.988252 40.065806,20.2882927 39.6950597,20.2882927" id="Fill-9" fill="#344154"></path>
                        <path d="M39.6959552,20.2882927 C39.6699851,20.2882927 39.6444627,20.2869512 39.6180448,20.2838211 C39.2495373,20.2413415 38.9853582,19.9086585 39.0278955,19.5406504 L39.2172985,17.9018293 L34.137,17.9018293 L34.326403,19.5406504 C34.3689403,19.9086585 34.1047612,20.2413415 33.735806,20.2838211 C33.3668507,20.326748 33.0341642,20.0624797 32.9916269,19.6944715 L32.6302836,16.5603659 L40.7249104,16.5603659 L40.3622239,19.6944715 C40.3223731,20.0365447 40.0322239,20.2882927 39.6959552,20.2882927" id="Fill-11" fill="#344154"></path>
                        <path d="M29.3856269,23.5055244 L27.5771194,23.5055244 C27.2063731,23.5055244 26.9054776,23.2054837 26.9054776,22.8347927 C26.9054776,22.4641016 27.2063731,22.164061 27.5771194,22.164061 L29.3856269,22.164061 C29.7563731,22.164061 30.0572687,22.4641016 30.0572687,22.8347927 C30.0572687,23.2054837 29.7563731,23.5055244 29.3856269,23.5055244" id="Fill-13" fill="#344154"></path>
                        <path d="M46.2973881,23.5055244 L43.9685821,23.5055244 C43.5978358,23.5055244 43.2969403,23.2054837 43.2969403,22.8347927 C43.2969403,22.4641016 43.5978358,22.164061 43.9685821,22.164061 L46.2973881,22.164061 C46.6681343,22.164061 46.9690299,22.4641016 46.9690299,22.8347927 C46.9690299,23.2054837 46.6681343,23.5055244 46.2973881,23.5055244" id="Fill-15" fill="#344154"></path>
                        <path d="M29.3856269,23.5055244 L27.0568209,23.5055244 C26.6860746,23.5055244 26.3851791,23.2054837 26.3851791,22.8347927 C26.3851791,22.4641016 26.6860746,22.164061 27.0568209,22.164061 L29.3856269,22.164061 C29.7563731,22.164061 30.0572687,22.4641016 30.0572687,22.8347927 C30.0572687,23.2054837 29.7563731,23.5055244 29.3856269,23.5055244" id="Fill-17" fill="#344154"></path>
                        <path d="M17.006194,19.3083984 L9.24156716,19.3083984 C8.8708209,19.3083984 8.56992537,19.0083577 8.56992537,18.6376667 C8.56992537,18.2669756 8.8708209,17.966935 9.24156716,17.966935 L17.006194,17.966935 C17.3769403,17.966935 17.6778358,18.2669756 17.6778358,18.6376667 C17.6778358,19.0083577 17.3769403,19.3083984 17.006194,19.3083984" id="Fill-19" fill="#344154"></path>
                        <path d="M17.006194,22.6186382 L9.24156716,22.6186382 C8.8708209,22.6186382 8.56992537,22.3185976 8.56992537,21.9479065 C8.56992537,21.5772154 8.8708209,21.2771748 9.24156716,21.2771748 L17.006194,21.2771748 C17.3769403,21.2771748 17.6778358,21.5772154 17.6778358,21.9479065 C17.6778358,22.3185976 17.3769403,22.6186382 17.006194,22.6186382" id="Fill-21" fill="#344154"></path>
                        <path d="M17.006194,25.9286098 L9.24156716,25.9286098 C8.8708209,25.9286098 8.56992537,25.6285691 8.56992537,25.257878 C8.56992537,24.887187 8.8708209,24.5871463 9.24156716,24.5871463 L17.006194,24.5871463 C17.3769403,24.5871463 17.6778358,24.887187 17.6778358,25.257878 C17.6778358,25.6285691 17.3769403,25.9286098 17.006194,25.9286098" id="Fill-23" fill="#344154"></path>
                        <g id="Group-27" transform="translate(0.000000, 34.592898)">
                            <mask id="mask-2" fill="white">
                                <use xlink:href="#path-1"></use>
                            </mask>
                            <g id="Clip-26"></g>
                            <path d="M1.34328358,1.76286179 L1.34328358,3.53985366 C1.34328358,4.30001626 1.96253731,4.91887805 2.72373134,4.91887805 L56.8979104,4.91887805 C57.6591045,4.91887805 58.2783582,4.30001626 58.2783582,3.53985366 L58.2783582,1.76286179 L1.34328358,1.76286179 Z M56.8979104,6.26034146 L2.72373134,6.26034146 C1.2219403,6.26034146 0,5.04005691 0,3.53985366 L0,1.09213008 C0,0.721439024 0.300895522,0.421398374 0.671641791,0.421398374 L58.95,0.421398374 C59.3207463,0.421398374 59.6216418,0.721439024 59.6216418,1.09213008 L59.6216418,3.53985366 C59.6216418,5.04005691 58.4001493,6.26034146 56.8979104,6.26034146 Z" id="Fill-25" fill="#344154" mask="url(#mask-2)"></path>
                        </g>
                        <g id="Group-30" transform="translate(3.582090, 0.162004)">
                            <mask id="mask-4" fill="white">
                                <use xlink:href="#path-3"></use>
                            </mask>
                            <g id="Clip-29"></g>
                            <path d="M1.55798507,34.8522927 L50.8994776,34.8522927 L50.8994776,2.88745528 C50.8994776,2.19213008 50.3335075,1.62647967 49.6372388,1.62647967 L2.82067164,1.62647967 C2.12485075,1.62647967 1.55798507,2.19213008 1.55798507,2.88745528 L1.55798507,34.8522927 Z M51.5711194,36.1937561 L0.886343284,36.1937561 C0.515597015,36.1937561 0.214701493,35.8937154 0.214701493,35.5230244 L0.214701493,2.88745528 C0.214701493,1.45253659 1.38380597,0.28501626 2.82067164,0.28501626 L49.6372388,0.28501626 C51.0741045,0.28501626 52.2427612,1.45253659 52.2427612,2.88745528 L52.2427612,35.5230244 C52.2427612,35.8937154 51.9418657,36.1937561 51.5711194,36.1937561 Z" id="Fill-28" fill="#344154" mask="url(#mask-4)"></path>
                        </g>
                        <mask id="mask-6" fill="white">
                            <use xlink:href="#path-5"></use>
                        </mask>
                        <g id="Clip-32"></g>
                        <polygon id="Fill-31" fill="#009DFF" mask="url(#mask-6)" points="9.0380597 15.1823699 17.2097015 15.1823699 17.2097015 7.29456504 9.0380597 7.29456504"></polygon>
                    </g>
                    <g id="Group-3" transform="translate(17.462687, 0.000000)">
                        <g id="Group-2">
                            <path d="M8.73134328,2.23577236 L1.11940299,12.0731707 L4.92537313,12.0731707 C3.73134328,17.2899729 3.13432836,19.898374 3.13432836,19.898374 C3.13432836,19.898374 5.89552239,16.3211382 11.4179104,9.16666667 C7.53731343,9.61382114 5.82089552,9.61382114 6.26865672,9.16666667 C6.71641791,8.7195122 7.53731343,6.40921409 8.73134328,2.23577236 Z" id="Path-2" fill="#009DFF" fill-rule="nonzero"></path>
                            <path d="M2.03592537,11.487935 L5.70891045,11.5134228 C5.9251791,11.5147642 6.12756716,11.6202927 6.25249254,11.7960244 C6.37741791,11.9726504 6.41010448,12.1984634 6.33935821,12.4023659 L4.78473134,16.9119187 L10.3875672,9.70244715 L6.71547761,9.67695935 C6.49920896,9.67561789 6.2968209,9.57008943 6.17189552,9.39391057 C6.04697015,9.21773171 6.01473134,8.9919187 6.08502985,8.78801626 L7.64010448,4.27891057 L2.03592537,11.487935 Z M2.82935821,21.191187 C2.721,21.191187 2.61129851,21.165252 2.51010448,21.1106992 C2.22129851,20.9546423 2.08786567,20.612122 2.19443284,20.3022439 L4.76502985,12.8481789 L0.667119403,12.8200081 C0.411447761,12.8182195 0.179059701,12.6711057 0.0675671642,12.4421626 C-0.0443731343,12.2123252 -0.0157164179,11.939561 0.141,11.7378943 L9.06443284,0.259439024 C9.26592537,0.000536585366 9.62592537,-0.0750325203 9.91473134,0.0805772358 C10.2035373,0.237081301 10.3369701,0.579154472 10.2299552,0.88903252 L7.65980597,8.34220325 L11.7563731,8.37037398 C12.0120448,8.3721626 12.2444328,8.51838211 12.3563731,8.74821951 C12.4678657,8.97805691 12.439209,9.25082114 12.2824925,9.4524878 L3.36040299,20.9318374 C3.22920896,21.1004146 3.03129851,21.191187 2.82935821,21.191187 Z" id="Fill-1" fill="#344154"></path>
                        </g>
                    </g>
                </g>
            </g>
        </g>
    </g>
</svg>