<?xml version="1.0" encoding="UTF-8"?>
<svg width="103px" height="55px" viewBox="0 0 103 55" version="1.1" xmlns="http://www.w3.org/2000/svg" xmlns:xlink="http://www.w3.org/1999/xlink">
    <!-- Generator: Sketch 51.2 (57519) - http://www.bohemiancoding.com/sketch -->
    <title>Group 22</title>
    <desc>Created with Sketch.</desc>
    <defs>
        <polygon id="path-1" points="0 54.6777857 102.711429 54.6777857 102.711429 -7.14285714e-05 0 -7.14285714e-05"></polygon>
    </defs>
    <g id="Hero-Tests" stroke="none" stroke-width="1" fill="none" fill-rule="evenodd">
        <g id="CM-hero-A-mobile" transform="translate(-56.000000, -1125.000000)">
            <g id="6-quick-hitting-facts" transform="translate(20.000000, 724.000000)">
                <g id="Group-14" transform="translate(27.000000, 401.000000)">
                    <g id="Group-22" transform="translate(9.000000, 0.000000)">
                        <path d="M9.54521429,16.7752857 C9.27092857,16.7752857 8.99664286,16.671 8.78735714,16.4617143 L6.36878571,14.0424286 L2.62878571,14.0424286 C2.03735714,14.0424286 1.55735714,13.5624286 1.55735714,12.971 C1.55735714,12.3795714 2.03735714,11.8995714 2.62878571,11.8995714 L7.25592857,11.8995714 L10.3030714,14.946 C10.7209286,15.3645714 10.7209286,16.0431429 10.3030714,16.4617143 C10.0937857,16.671 9.8195,16.7752857 9.54521429,16.7752857" id="Fill-1" fill="#344154"></path>
                        <path d="M61.5367143,24.7935714 C58.9681429,24.7935714 56.8788571,26.8835714 56.8788571,29.4514286 C56.8788571,32.02 58.9681429,34.11 61.5367143,34.11 C64.1052857,34.11 66.1945714,32.02 66.1945714,29.4514286 C66.1945714,26.8835714 64.1052857,24.7935714 61.5367143,24.7935714 M61.5367143,36.2528571 C57.7867143,36.2528571 54.736,33.2014286 54.736,29.4514286 C54.736,25.7014286 57.7867143,22.6507143 61.5367143,22.6507143 C65.2867143,22.6507143 68.3374286,25.7014286 68.3374286,29.4514286 C68.3374286,33.2014286 65.2867143,36.2528571 61.5367143,36.2528571" id="Fill-3" fill="#344154"></path>
                        <path d="M16.7069286,24.7935714 C14.1376429,24.7935714 12.0483571,26.8835714 12.0483571,29.4514286 C12.0483571,32.02 14.1376429,34.11 16.7069286,34.11 C19.2755,34.11 21.3647857,32.02 21.3647857,29.4514286 C21.3647857,26.8835714 19.2755,24.7935714 16.7069286,24.7935714 M16.7069286,36.2528571 C12.9562143,36.2528571 9.9055,33.2014286 9.9055,29.4514286 C9.9055,25.7014286 12.9562143,22.6507143 16.7069286,22.6507143 C20.4569286,22.6507143 23.5076429,25.7014286 23.5076429,29.4514286 C23.5076429,33.2014286 20.4569286,36.2528571 16.7069286,36.2528571" id="Fill-5" fill="#344154"></path>
                        <path d="M72.4595714,31.8394286 L67.1088571,31.8394286 L67.1088571,29.6965714 L72.2852857,29.6965714 L72.2445714,25.8822857 C72.2445714,25.5987143 72.1495714,25.5365714 72.1095714,25.5094286 L70.056,24.1608571 L70.0431429,21.4122857 L70.0495714,21.3515714 C70.0595714,21.2637143 70.0131429,21.1815714 69.9367143,21.1465714 C68.5681429,20.5244286 64.5631429,19.0315714 56.9252857,18.5915714 C53.956,18.4208571 51.1438571,17.6808571 48.5674286,16.3915714 L42.3874286,13.3022857 C40.1102857,12.163 37.5602857,11.5608571 35.0131429,11.5608571 L27.1088571,11.5608571 C22.031,11.5608571 17.1695714,12.8251429 13.0481429,15.2172857 C9.92171429,17.0315714 6.76671429,17.8922857 3.64242857,17.7894286 L3.64242857,20.6337143 L3.416,20.9244286 C3.406,20.9372857 2.14314286,22.6165714 2.14314286,24.9458571 C2.14457143,25.133 2.22457143,29.6965714 5.62028571,29.6965714 L11.1352857,29.6965714 L11.1352857,31.8394286 L5.62028571,31.8394286 C1.19671429,31.8394286 0.00957142857,27.3322857 0.000285714286,24.9494286 C0.000285714286,22.5101429 1.02957143,20.6515714 1.49957143,19.9308571 L1.49957143,17.4865714 C1.49957143,16.9772857 1.71028571,16.4858571 2.07885714,16.1372857 C2.44457143,15.7908571 2.95457143,15.6151429 3.446,15.6351429 C6.23457143,15.7908571 9.10885714,15.0265714 11.9724286,13.3637143 C16.4202857,10.783 21.6538571,9.418 27.1088571,9.418 L35.0131429,9.418 C37.891,9.418 40.7724286,10.0987143 43.346,11.3851429 L49.526,14.4744286 C51.841,15.6337143 54.3717143,16.2987143 57.0481429,16.453 C64.7595714,16.8965714 68.9881429,18.3615714 70.8224286,19.1958571 C71.7224286,19.6037143 72.2645714,20.5294286 72.186,21.5144286 L72.1931429,23.0015714 L73.2845714,23.718 C73.9952857,24.1837143 74.3874286,24.9494286 74.3874286,25.8715714 L74.4302857,29.848 C74.4352857,30.3787143 74.2324286,30.8787143 73.8595714,31.2558571 C73.486,31.6322857 72.9888571,31.8394286 72.4595714,31.8394286" id="Fill-7" fill="#344154"></path>
                        <mask id="mask-2" fill="white">
                            <use xlink:href="#path-1"></use>
                        </mask>
                        <g id="Clip-10"></g>
                        <polygon id="Fill-9" fill="#344154" mask="url(#mask-2)" points="22.6864286 31.8392143 55.4692857 31.8392143 55.4692857 29.6963571 22.6864286 29.6963571"></polygon>
                        <path d="M88.0643571,8.80928571 L88.0643571,33.2935714 L101.230071,33.2935714 L99.5500714,23.6571429 C99.3629286,22.585 99.1400714,21.5157143 98.8686429,20.4614286 C97.1207857,13.6642857 95.1893571,10.4021429 88.0643571,8.80928571" id="Fill-11" fill="#009DFF" mask="url(#mask-2)"></path>
                        <path d="M81.2451429,9.19292857 L79.1022857,9.19292857 L79.1022857,2.84078571 C79.1022857,2.45578571 78.7894286,2.14292857 78.4037143,2.14292857 C78.0187143,2.14292857 77.7058571,2.45578571 77.7058571,2.84078571 L77.7058571,9.19292857 L75.563,9.19292857 L75.563,2.84078571 C75.563,1.27435714 76.8372857,7.14285714e-05 78.4037143,7.14285714e-05 C79.9708571,7.14285714e-05 81.2451429,1.27435714 81.2451429,2.84078571 L81.2451429,9.19292857 Z" id="Fill-12" fill="#344154" mask="url(#mask-2)"></path>
                        <polygon id="Fill-13" fill="#344154" mask="url(#mask-2)" points="88.0642857 34.3649286 101.23 34.3649286 101.23 32.2220714 88.0642857 32.2220714"></polygon>
                        <polygon id="Fill-14" fill="#344154" mask="url(#mask-2)" points="6.19714286 47.1206429 19.1821429 47.1206429 19.1821429 44.9777857 6.19714286 44.9777857"></polygon>
                        <path d="M26.7752857,40.1688571 C23.366,40.1688571 20.5924286,42.9424286 20.5924286,46.3517143 C20.5924286,49.7617143 23.366,52.5345714 26.7752857,52.5345714 C30.1845714,52.5345714 32.9581429,49.7617143 32.9581429,46.3517143 C32.9581429,42.9424286 30.1845714,40.1688571 26.7752857,40.1688571 M26.7752857,54.6774286 C22.1838571,54.6774286 18.4495714,50.9431429 18.4495714,46.3517143 C18.4495714,41.761 22.1838571,38.026 26.7752857,38.026 C31.3667143,38.026 35.101,41.761 35.101,46.3517143 C35.101,50.9431429 31.3667143,54.6774286 26.7752857,54.6774286" id="Fill-15" fill="#344154" mask="url(#mask-2)"></path>
                        <path d="M26.7752857,45.8984286 C26.5252857,45.8984286 26.3224286,46.102 26.3224286,46.352 C26.3224286,46.6012857 26.5252857,46.8048571 26.7752857,46.8048571 C27.0252857,46.8048571 27.2281429,46.6012857 27.2281429,46.352 C27.2281429,46.102 27.0252857,45.8984286 26.7752857,45.8984286 M26.7752857,48.0412857 C25.8431429,48.0412857 25.0852857,47.2827143 25.0852857,46.352 C25.0852857,45.4198571 25.8431429,44.662 26.7752857,44.662 C27.7074286,44.662 28.4652857,45.4198571 28.4652857,46.352 C28.4652857,47.2827143 27.7074286,48.0412857 26.7752857,48.0412857" id="Fill-16" fill="#344154" mask="url(#mask-2)"></path>
                        <path d="M46.5213571,45.8984286 C46.2713571,45.8984286 46.0685,46.102 46.0685,46.352 C46.0685,46.6012857 46.2713571,46.8048571 46.5213571,46.8048571 C46.7713571,46.8048571 46.9742143,46.6012857 46.9742143,46.352 C46.9742143,46.102 46.7713571,45.8984286 46.5213571,45.8984286 M46.5213571,48.0412857 C45.5892143,48.0412857 44.8313571,47.2827143 44.8313571,46.352 C44.8313571,45.4198571 45.5892143,44.662 46.5213571,44.662 C47.4535,44.662 48.2113571,45.4198571 48.2113571,46.352 C48.2113571,47.2827143 47.4535,48.0412857 46.5213571,48.0412857" id="Fill-17" fill="#344154" mask="url(#mask-2)"></path>
                        <path d="M87.7672143,45.8984286 C87.5172143,45.8984286 87.3143571,46.102 87.3143571,46.352 C87.3143571,46.6012857 87.5172143,46.8048571 87.7672143,46.8048571 C88.0172143,46.8048571 88.2200714,46.6012857 88.2200714,46.352 C88.2200714,46.102 88.0172143,45.8984286 87.7672143,45.8984286 M87.7672143,48.0412857 C86.8350714,48.0412857 86.0772143,47.2827143 86.0772143,46.352 C86.0772143,45.4198571 86.8350714,44.662 87.7672143,44.662 C88.6993571,44.662 89.4572143,45.4198571 89.4572143,46.352 C89.4572143,47.2827143 88.6993571,48.0412857 87.7672143,48.0412857" id="Fill-18" fill="#344154" mask="url(#mask-2)"></path>
                        <path d="M46.5213571,40.1688571 C43.1120714,40.1688571 40.3385,42.9424286 40.3385,46.3517143 C40.3385,49.7617143 43.1120714,52.5345714 46.5213571,52.5345714 C49.9306429,52.5345714 52.7042143,49.7617143 52.7042143,46.3517143 C52.7042143,42.9424286 49.9306429,40.1688571 46.5213571,40.1688571 M46.5213571,54.6774286 C41.9299286,54.6774286 38.1956429,50.9431429 38.1956429,46.3517143 C38.1956429,41.761 41.9299286,38.026 46.5213571,38.026 C51.1127857,38.026 54.8470714,41.761 54.8470714,46.3517143 C54.8470714,50.9431429 51.1127857,54.6774286 46.5213571,54.6774286" id="Fill-19" fill="#344154" mask="url(#mask-2)"></path>
                        <path d="M102.711357,43.8511429 L93.4535,43.8511429 L93.1449286,43.3082857 C92.0456429,41.3718571 89.9856429,40.169 87.7670714,40.169 C85.5485,40.169 83.4877857,41.3718571 82.3892143,43.3082857 L82.0813571,43.8511429 L52.2077857,43.8511429 L51.8992143,43.3082857 C50.7999286,41.3718571 48.7392143,40.169 46.5213571,40.169 C44.3035,40.169 42.2427857,41.3718571 41.1435,43.3082857 L40.8349286,43.8511429 L32.4613571,43.8511429 L32.1535,43.3082857 C31.0542143,41.3718571 28.9935,40.169 26.7749286,40.169 C24.5563571,40.169 22.4956429,41.3718571 21.3970714,43.3082857 L21.0892143,43.8511429 L6.19635714,43.8511429 L6.19635714,34.1147143 L16.7070714,34.1147143 L16.7070714,36.2575714 L8.33921429,36.2575714 L8.33921429,41.7082857 L19.8692143,41.7082857 C21.4092143,39.4218571 23.9999286,38.0261429 26.7749286,38.0261429 C29.5499286,38.0261429 32.1406429,39.4218571 33.6806429,41.7082857 L39.6156429,41.7082857 C41.1556429,39.4218571 43.7463571,38.0261429 46.5213571,38.0261429 C49.2963571,38.0261429 51.8870714,39.4218571 53.4270714,41.7082857 L80.8613571,41.7082857 C82.4006429,39.4218571 84.9913571,38.0261429 87.7670714,38.0261429 C90.5420714,38.0261429 93.1327857,39.4218571 94.6727857,41.7082857 L100.5685,41.7082857 L100.5685,41.3468571 C100.5685,32.6325714 99.1270714,24.0368571 96.2849286,15.799 C94.8870714,12.0025714 91.0420714,10.2647143 88.0642143,10.2647143 L81.2449286,10.2647143 L81.2449286,30.2482857 C81.2449286,33.5618571 78.5492143,36.2575714 75.2356429,36.2575714 L61.5363571,36.2575714 L61.5363571,34.1147143 L75.2356429,34.1147143 C77.3677857,34.1147143 79.1020714,32.3797143 79.1020714,30.2482857 L79.1020714,8.12185714 L88.0642143,8.12185714 C91.8863571,8.12185714 96.5342143,10.2725714 98.3027857,15.079 C101.230643,23.5632857 102.711357,32.394 102.711357,41.3468571 L102.711357,43.8511429 Z" id="Fill-20" fill="#344154" mask="url(#mask-2)"></path>
                        <path d="M87.7672143,40.1688571 C84.3579286,40.1688571 81.5843571,42.9424286 81.5843571,46.3517143 C81.5843571,49.7617143 84.3579286,52.5345714 87.7672143,52.5345714 C91.1765,52.5345714 93.9500714,49.7617143 93.9500714,46.3517143 C93.9500714,42.9424286 91.1765,40.1688571 87.7672143,40.1688571 M87.7672143,54.6774286 C83.1757857,54.6774286 79.4415,50.9431429 79.4415,46.3517143 C79.4415,41.761 83.1757857,38.026 87.7672143,38.026 C92.3586429,38.026 96.0929286,41.761 96.0929286,46.3517143 C96.0929286,50.9431429 92.3586429,54.6774286 87.7672143,54.6774286" id="Fill-21" fill="#344154" mask="url(#mask-2)"></path>
                    </g>
                </g>
            </g>
        </g>
    </g>
</svg>