<svg xmlns="http://www.w3.org/2000/svg" enable-background="new 0 0 24 24" height="18px" viewBox="0 0 32 32" width="18px"
     fill="#7D838A">
  <g>
    <path fill="#0299f7" style="fill: var(--color1, #0299f7)" d="M22.925 22.925c-5.191 5.191-13.607 5.191-18.798 0s-5.191-13.607 0-18.798c5.191-5.191 13.607-5.191 18.798 0s5.191 13.607 0 18.798zM19.107 19.107c3.082-3.082 3.082-8.079 0-11.161s-8.079-3.082-11.161 0c-3.082 3.082-3.082 8.079 0 11.161s8.079 3.082 11.161 0z"></path>
	<path fill="#0299f7" style="fill: var(--color1, #0299f7)" d="M19.547 23.365l7.049 7.049c1.054 1.054 2.764 1.054 3.818 0s1.054-2.764 0-3.818l-7.049-7.049c-1.054-1.054-2.764-1.054-3.818 0s-1.054 2.764 0 3.818z"></path>
  </g>
</svg>
