<svg xmlns="http://www.w3.org/2000/svg" enable-background="new 0 0 24 24" height="18px" viewBox="0 0 32 32" width="18px"
     fill="#7D838A">
  <g>
    <path d="M16 30.933c8.247 0 14.933-6.686 14.933-14.933s-6.686-14.933-14.933-14.933c-8.247 0-14.933 6.686-14.933 14.933s6.686 14.933 14.933 14.933zM16 32c-8.837 0-16-7.163-16-16s7.163-16 16-16c8.837 0 16 7.163 16 16s-7.163 16-16 16z"></path>
	<path d="M15.499 10.090c0-0.295 0.239-0.533 0.533-0.533s0.533 0.239 0.533 0.533v12.772c0 0.295-0.239 0.533-0.533 0.533s-0.533-0.239-0.533-0.533v-12.772z"></path>
	<path d="M22.4 15.924c0.295 0 0.533 0.239 0.533 0.533s-0.239 0.533-0.533 0.533h-12.772c-0.295 0-0.533-0.239-0.533-0.533s0.239-0.533 0.533-0.533h12.772z"></path>
  </g>
</svg>
