<?xml version="1.0" encoding="UTF-8" standalone="no"?>
<svg width="81px" height="40px" viewBox="0 0 81 40" version="1.1" xmlns="http://www.w3.org/2000/svg" xmlns:xlink="http://www.w3.org/1999/xlink">
    <!-- Generator: Sketch 42 (36781) - http://www.bohemiancoding.com/sketch -->
    <title>inspection-icon</title>
    <desc>Created with Sketch.</desc>
    <defs>
        <path d="M10.5865292,13.0666667 C9.01055998,13.0666667 6.97696734,11.94816 6.12811817,10.6147067 L6.12811817,10.6147067 L0.490822297,1.74897333 C-0.198542176,0.6664 0.16534332,-2.85993424e-14 1.45098528,-2.85993424e-14 L1.45098528,-2.85993424e-14 L63.0055693,-2.85993424e-14 C64.2000772,-2.85993424e-14 64.2580124,0.163333333 63.3395107,0.92512 L63.3395107,0.92512 L51.0227353,11.1334533 C49.7514144,12.18728 47.3168317,13.0666667 45.6699081,13.0666667 L45.6699081,13.0666667 L10.5865292,13.0666667 L10.5865292,13.0666667 Z" id="path-1"></path>
        <path d="M11.2374871,14.3733333 C9.43889032,14.3733333 7.19829304,13.13984 6.23096953,11.61888 L6.23096953,11.61888 L0.593022695,2.7538 C-0.371696991,1.23741333 0.300742574,-2.30926389e-14 2.10194323,-2.30926389e-14 L2.10194323,-2.30926389e-14 L63.6565273,-2.30926389e-14 C65.4635865,-2.30926389e-14 65.7923203,0.932306667 64.4044779,2.08217333 L64.4044779,2.08217333 L52.0883535,12.29116 C50.7005111,13.44168 48.1188119,14.3733333 46.320866,14.3733333 L46.320866,14.3733333 L11.2374871,14.3733333 L11.2374871,14.3733333 Z" id="path-3"></path>
        <path d="M1.30842549,13.72 C0.582607368,13.72 0,13.1346133 0,12.40876 L0,12.40876 L0,1.31124 C0,0.583426667 0.583258326,1.14042104e-13 1.30842549,1.14042104e-13 L1.30842549,1.14042104e-13 L77.4574868,1.14042104e-13 C78.1833049,1.14042104e-13 78.7659123,0.585386667 78.7659123,1.31124 L78.7659123,1.31124 L78.7659123,6.86 C78.7659123,10.6493333 75.705108,13.72 71.9295519,13.72 L71.9295519,13.72 L1.30842549,13.72 L1.30842549,13.72 Z" id="path-5"></path>
        <path d="M1.95938344,15.0266667 C0.872283657,15.0266667 0,14.14728 0,13.0620933 L0,13.0620933 L0,1.96457333 C0,0.872853333 0.877491321,1.14042104e-13 1.95938344,1.14042104e-13 L1.95938344,1.14042104e-13 L78.1084448,1.14042104e-13 C79.1961955,1.14042104e-13 80.0678282,0.88004 80.0678282,1.96457333 L80.0678282,1.96457333 L80.0678282,7.51333333 C80.0678282,11.66396 76.7153948,15.0266667 72.5805098,15.0266667 L72.5805098,15.0266667 L1.95938344,15.0266667 L1.95938344,15.0266667 Z" id="path-7"></path>
        <path d="M-8.17124129e-15,5.88 C-8.17124129e-15,2.63228 2.62270959,0 5.85862158,0 L5.85862158,0 C9.09453356,0 11.7172432,2.63228 11.7172432,5.88 L11.7172432,5.88 C11.7172432,9.12772 9.09453356,11.76 5.85862158,11.76 L5.85862158,11.76 C2.62270959,11.76 -8.17124129e-15,9.12772 -8.17124129e-15,5.88" id="path-9"></path>
        <path d="M-8.6153305e-15,2.61333333 C-8.6153305e-15,1.17012 1.16586569,2.26485497e-14 2.60383181,2.26485497e-14 L2.60383181,2.26485497e-14 C4.04179793,2.26485497e-14 5.20766362,1.17012 5.20766362,2.61333333 L5.20766362,2.61333333 C5.20766362,4.05654667 4.04179793,5.22666667 2.60383181,5.22666667 L2.60383181,5.22666667 C1.16586569,5.22666667 -8.6153305e-15,4.05654667 -8.6153305e-15,2.61333333" id="path-11"></path>
        <path d="M0,5.88 C0,2.63228 2.62270959,5.68434155e-15 5.85862158,5.68434155e-15 L5.85862158,5.68434155e-15 C9.09453356,5.68434155e-15 11.7172432,2.63228 11.7172432,5.88 L11.7172432,5.88 C11.7172432,9.12772 9.09453356,11.76 5.85862158,11.76 L5.85862158,11.76 C2.62270959,11.76 0,9.12772 0,5.88" id="path-13"></path>
        <path d="M0,2.61333333 C0,1.17012 1.16586569,2.83328912e-14 2.60383181,2.83328912e-14 L2.60383181,2.83328912e-14 C4.04179793,2.83328912e-14 5.20766362,1.17012 5.20766362,2.61333333 L5.20766362,2.61333333 C5.20766362,4.05654667 4.04179793,5.22666667 2.60383181,5.22666667 L2.60383181,5.22666667 C1.16586569,5.22666667 0,4.05654667 0,2.61333333" id="path-15"></path>
        <path d="M3.25478976,5.88 L1.30777453,5.88 C0.585862158,5.88 0,5.29330667 0,4.57333333 L0,4.57333333 L0,1.96 C0,1.24133333 0.586513116,0.653333333 1.30777453,0.653333333 L1.30777453,0.653333333 L3.25478976,0.653333333 L3.25478976,5.88 L3.90574772,5.88 L3.25478976,6.53333333 L3.25478976,5.88 Z M3.25478976,0.653333333 L3.25478976,2.2759572e-14 L3.90574772,0.653333333 L3.25478976,0.653333333 Z" id="path-17"></path>
        <path d="M1.95873248,6.53333333 C0.878793236,6.53333333 0,5.65590667 0,4.57333333 L0,4.57333333 L0,1.96 C0,0.881346667 0.876840363,2.26485497e-14 1.95873248,2.26485497e-14 L1.95873248,2.26485497e-14 L4.55670567,2.26485497e-14 L4.55670567,6.53333333 L1.95873248,6.53333333 Z" id="path-19"></path>
        <polygon id="path-21" points="0.649005079 2.58328 2.96120773 0.26264 4.88804327 2.19650667 2.57584062 4.51649333 0.649005079 2.58328"></polygon>
        <path d="M0.649005079,9.94177333 L9.31651022,1.24329333 C10.7010978,-0.147653333 12.9462518,-0.14896 14.3295374,1.23937333 L14.3295374,1.23937333 C15.7102192,2.62574667 15.7115212,4.8804 14.3295374,6.27134667 L14.3295374,6.27134667 L5.66203227,14.9698267 L0.652259869,9.94177333 L0.649005079,9.94177333 Z" id="path-23"></path>
        <path d="M3.49369133,19.4320933 C-0.773989006,14.67844 -0.481057927,7.43689333 4.14725312,3.25686667 L4.14725312,3.25686667 C8.77556416,-0.92316 15.9868764,-0.457333333 20.2539057,4.29632 L20.2539057,4.29632 C24.5215861,9.04932 24.229306,16.29152 19.6009949,20.4715467 L19.6009949,20.4715467 C17.4814758,22.38516 14.8197088,23.3253067 12.1475264,23.3253067 L12.1475264,23.3253067 C8.98452167,23.3253067 5.80654494,22.0081867 3.49369133,19.4320933" id="path-25"></path>
        <path d="M2.70017359,15.2579467 C-0.651608911,11.8939333 -0.669184776,6.45624 2.66241803,3.11313333 L2.66241803,3.11313333 C5.99336987,-0.229973333 11.410642,-0.212986667 14.7630754,3.15168 L14.7630754,3.15168 C18.1148579,6.51569333 18.1324338,11.9533867 14.800831,15.2964933 L14.800831,15.2964933 C13.1421901,16.9605333 10.9666886,17.7922267 8.78597949,17.79288 L8.78597949,17.79288 C6.58639257,17.79288 4.38355086,16.9474667 2.70017359,15.2579467" id="path-27"></path>
    </defs>
    <g id="Current-design" stroke="none" stroke-width="1" fill="none" fill-rule="evenodd">
        <g id="CR-LP-Help" transform="translate(-592.000000, -415.000000)">
            <g id="Group-3" transform="translate(197.000000, 378.000000)">
                <g id="inspection-icon" transform="translate(395.000000, 37.000000)">
                    <g id="g478" transform="translate(37.286859, 7.720001) scale(-1, 1) rotate(-180.000000) translate(-37.286859, -7.720001) translate(5.207651, 0.920001)">
                        <g id="g480-Clipped" transform="translate(0.000000, -0.000000)">
                            <mask id="mask-2" fill="white">
                                <use xlink:href="#path-1"></use>
                            </mask>
                            <g id="path484"></g>
                            <g id="g480" mask="url(#mask-2)">
                                <g transform="translate(-1.301916, -1.306667)" id="g486">
                                    <g transform="translate(0.372218, 0.512344)">
                                        <path d="M6.50957953,11.76 C7.47690305,13.28096 9.71750032,14.5144533 11.5160971,14.5144533 L46.599476,14.5144533 C48.3974219,14.5144533 50.9791211,13.5821467 52.3669635,12.43228 L64.6837389,2.22329333 C66.0709303,1.07342667 65.7421965,0.14112 63.9351373,0.14112 L2.38055323,0.14112 C0.579352578,0.14112 -0.0930869873,1.37918667 0.871632699,2.89557333 L6.50957953,11.76 Z" id="path488" fill="#DDDEDD" fill-rule="nonzero"></path>
                                    </g>
                                </g>
                            </g>
                        </g>
                    </g>
                    <g id="g490" transform="translate(37.437881, 7.973335) scale(-1, 1) rotate(-180.000000) translate(-37.437881, -7.973335) translate(4.556693, 0.773335)">
                        <g id="g492-Clipped" transform="translate(0.000000, 0.000000)">
                            <mask id="mask-4" fill="white">
                                <use xlink:href="#path-3"></use>
                            </mask>
                            <g id="path496"></g>
                            <g id="g492" mask="url(#mask-4)">
                                <g transform="translate(-0.650958, -0.653333)" id="g498">
                                    <g transform="translate(0.372153, 0.512344)">
                                        <path d="M6.50957953,11.76 C7.47690305,13.28096 9.71750032,14.5144533 11.5167481,14.5144533 L46.600127,14.5144533 C48.3974219,14.5144533 50.9797721,13.5821467 52.3669635,12.43228 L64.6837389,2.22329333 C66.0709303,1.07342667 65.7421965,0.14112 63.9351373,0.14112 L2.38055323,0.14112 C0.579352578,0.14112 -0.0930869873,1.37918667 0.871632699,2.89557333 L6.50957953,11.76 Z" id="path500" stroke="#455864" stroke-width="2.59999985"></path>
                                    </g>
                                </g>
                            </g>
                        </g>
                    </g>
                    <g id="g502" transform="translate(40.348965, 21.040001) scale(-1, 1) rotate(-180.000000) translate(-40.348965, -21.040001) translate(0.650945, 13.840001)">
                        <g id="g504-Clipped" transform="translate(0.000000, 0.000000)">
                            <mask id="mask-6" fill="white">
                                <use xlink:href="#path-5"></use>
                            </mask>
                            <g id="path508"></g>
                            <g id="g504" mask="url(#mask-6)">
                                <g transform="translate(-0.650958, -1.306667)" id="g510">
                                    <g transform="translate(0.000000, 0.648891)">
                                        <path d="M5.67064576e-15,13.0666667 C5.67064576e-15,14.1518533 0.871632699,15.03124 1.95938344,15.03124 L72.5805098,15.03124 C76.7153948,15.03124 80.0678282,11.66788 80.0678282,7.51790667 L80.0678282,1.96914667 C80.0678282,0.88396 79.1961955,0.00457333333 78.1084448,0.00457333333 L1.95938344,0.00457333333 C0.877491321,0.00457333333 -1.11022302e-16,0.877426667 -1.11022302e-16,1.96914667 L5.67064576e-15,13.0666667 Z" id="path512" fill="#FFFFFF" fill-rule="nonzero"></path>
                                    </g>
                                </g>
                            </g>
                        </g>
                    </g>
                    <g id="g514" transform="translate(40.098997, 21.293335) scale(-1, 1) rotate(-180.000000) translate(-40.098997, -21.293335) translate(-0.000013, 13.693335)">
                        <g id="g516-Clipped" transform="translate(0.000000, 0.000000)">
                            <mask id="mask-8" fill="white">
                                <use xlink:href="#path-7"></use>
                            </mask>
                            <g id="path520"></g>
                            <g id="g516" mask="url(#mask-8)">
                                <g transform="translate(0.000000, -0.653333)" id="g522">
                                    <g transform="translate(0.000000, 0.648825)">
                                        <path d="M5.78167822e-15,13.0666667 C5.78167822e-15,14.1518533 0.871632699,15.03124 1.95938344,15.03124 L72.5798589,15.03124 C76.7153948,15.03124 80.0678282,11.6685333 80.0678282,7.51790667 L80.0678282,1.96914667 C80.0678282,0.88396 79.1961955,0.00457333333 78.1084448,0.00457333333 L1.95938344,0.00457333333 C0.877491321,0.00457333333 1.01643954e-20,0.877426667 1.01643954e-20,1.96914667 L5.78167822e-15,13.0666667 Z" id="path524" stroke="#455864" stroke-width="2.59999985"></path>
                                    </g>
                                </g>
                            </g>
                        </g>
                    </g>
                    <g id="g526" transform="translate(36.854609, 8.193335) scale(-1, 1) rotate(-180.000000) translate(-36.854609, -8.193335) translate(36.453619, 2.193335)" stroke="#455864" stroke-width="1.29999992" stroke-linecap="square">
                        <path d="M0,11.76 L0,3.55271029e-16" id="path528"></path>
                    </g>
                    <g id="g530" transform="translate(13.826334, 28.120001) scale(-1, 1) rotate(-180.000000) translate(-13.826334, -28.120001) translate(7.811482, 22.120001)">
                        <g id="g532-Clipped" transform="translate(0.000000, 0.000000)">
                            <mask id="mask-10" fill="white">
                                <use xlink:href="#path-9"></use>
                            </mask>
                            <g id="path536"></g>
                            <g id="g532" mask="url(#mask-10)" fill-rule="nonzero" fill="#FFFFFF">
                                <g transform="translate(-3.254790, -3.266667)" id="path538">
                                    <polygon points="5.68434155e-15 18.2933333 18.2268227 18.2933333 18.2268227 0 5.68434155e-15 0"></polygon>
                                </g>
                            </g>
                        </g>
                    </g>
                    <g id="g542" transform="translate(13.826334, 28.120001) scale(-1, 1) rotate(-180.000000) translate(-13.826334, -28.120001) translate(7.811482, 22.120001)" stroke="#455864" stroke-width="1.29999992">
                        <g id="g548" transform="translate(0.000000, 0.000000)">
                            <path d="M5.85862158,1.15463195e-14 C9.09453356,1.15463195e-14 11.7172432,2.63228 11.7172432,5.88 C11.7172432,9.12772 9.09453356,11.76 5.85862158,11.76 C2.62270959,11.76 -8.17124129e-15,9.12772 -8.17124129e-15,5.88 C-8.17124129e-15,2.63228 2.62270959,1.15463195e-14 5.85862158,1.15463195e-14 Z" id="path550"></path>
                        </g>
                    </g>
                    <g id="g552" transform="translate(13.873203, 28.053335) scale(-1, 1) rotate(-180.000000) translate(-13.873203, -28.053335) translate(11.066272, 25.253335)">
                        <g id="g554-Clipped" transform="translate(0.000000, 0.000000)">
                            <mask id="mask-12" fill="white">
                                <use xlink:href="#path-11"></use>
                            </mask>
                            <g id="path558"></g>
                            <g id="g554" mask="url(#mask-12)" fill-rule="nonzero" fill="#FFFFFF">
                                <g transform="translate(-3.254790, -3.266667)" id="path560">
                                    <polygon points="5.68434155e-15 11.76 11.7172432 11.76 11.7172432 2.27373662e-14 5.68434155e-15 2.27373662e-14"></polygon>
                                </g>
                            </g>
                        </g>
                    </g>
                    <g id="g564" transform="translate(13.873203, 28.053335) scale(-1, 1) rotate(-180.000000) translate(-13.873203, -28.053335) translate(11.066272, 25.253335)" stroke="#455864" stroke-width="1.29999992">
                        <g id="g570" transform="translate(0.000000, 0.000000)">
                            <path d="M2.60383181,2.26485497e-14 C4.04179793,2.26485497e-14 5.20766362,1.17012 5.20766362,2.61333333 C5.20766362,4.05654667 4.04179793,5.22666667 2.60383181,5.22666667 C1.16586569,5.22666667 -8.6153305e-15,4.05654667 -8.6153305e-15,2.61333333 C-8.6153305e-15,1.17012 1.16586569,2.26485497e-14 2.60383181,2.26485497e-14 Z" id="path572"></path>
                        </g>
                    </g>
                    <g id="g574" transform="translate(67.204886, 28.120001) scale(-1, 1) rotate(-180.000000) translate(-67.204886, -28.120001) translate(61.190035, 22.120001)">
                        <g id="g576-Clipped" transform="translate(0.000000, -0.000000)">
                            <mask id="mask-14" fill="white">
                                <use xlink:href="#path-13"></use>
                            </mask>
                            <g id="path580"></g>
                            <g id="g576" mask="url(#mask-14)" fill-rule="nonzero" fill="#FFFFFF">
                                <g transform="translate(-3.254790, -3.266667)" id="path582">
                                    <polygon points="0 18.2933333 18.2268227 18.2933333 18.2268227 0 0 0"></polygon>
                                </g>
                            </g>
                        </g>
                    </g>
                    <g id="g586" transform="translate(67.204886, 28.120001) scale(-1, 1) rotate(-180.000000) translate(-67.204886, -28.120001) translate(61.190035, 22.120001)" stroke="#455864" stroke-width="1.29999992">
                        <g id="g592" transform="translate(0.000000, 0.000000)">
                            <path d="M5.85862158,5.32906882e-15 C9.0938826,5.32906882e-15 11.7172432,2.63228 11.7172432,5.88 C11.7172432,9.12772 9.0938826,11.76 5.85862158,11.76 C2.62270959,11.76 0,9.12772 0,5.88 C0,2.63228 2.62270959,5.32906882e-15 5.85862158,5.32906882e-15 Z" id="path594"></path>
                        </g>
                    </g>
                    <g id="g596" transform="translate(67.251755, 28.053335) scale(-1, 1) rotate(-180.000000) translate(-67.251755, -28.053335) translate(64.444824, 25.253335)">
                        <g id="g598-Clipped" transform="translate(0.000000, -0.000000)">
                            <mask id="mask-16" fill="white">
                                <use xlink:href="#path-15"></use>
                            </mask>
                            <g id="path602"></g>
                            <g id="g598" mask="url(#mask-16)" fill-rule="nonzero" fill="#FFFFFF">
                                <g transform="translate(-3.254790, -3.266667)" id="path604">
                                    <polygon points="0 11.76 11.7172432 11.76 11.7172432 0 0 0"></polygon>
                                </g>
                            </g>
                        </g>
                    </g>
                    <g id="g608" transform="translate(67.251755, 28.053335) scale(-1, 1) rotate(-180.000000) translate(-67.251755, -28.053335) translate(64.444824, 25.253335)" stroke="#455864" stroke-width="1.29999992">
                        <g id="g614" transform="translate(0.000000, -0.000000)">
                            <path d="M2.60383181,5.59552506e-15 C4.04179793,5.59552506e-15 5.20766362,1.17012 5.20766362,2.61333333 C5.20766362,4.05654667 4.04179793,5.22666667 2.60383181,5.22666667 C1.16586569,5.22666667 0,4.05654667 0,2.61333333 C0,1.17012 1.16586569,5.59552506e-15 2.60383181,5.59552506e-15 Z" id="path616"></path>
                        </g>
                    </g>
                    <g id="g618" transform="translate(78.167018, 22.680001) scale(-1, 1) rotate(-180.000000) translate(-78.167018, -22.680001) translate(76.162067, 19.080001)">
                        <g id="g620-Clipped">
                            <mask id="mask-18" fill="white">
                                <use xlink:href="#path-17"></use>
                            </mask>
                            <g id="path624"></g>
                            <g id="g620" mask="url(#mask-18)">
                                <g transform="translate(-0.650958, 0.000000)" id="g626">
                                    <g transform="translate(0.000000, -0.000196)">
                                        <path d="M0,4.57333333 C0,5.65590667 0.878793236,6.53333333 1.95873248,6.53333333 L4.55670567,6.53333333 L4.55670567,0 L1.95873248,0 C0.876840363,0 0,0.881346667 0,1.96065333 L0,4.57333333 Z" id="path628" fill="#FFFFFF" fill-rule="nonzero"></path>
                                    </g>
                                </g>
                            </g>
                        </g>
                    </g>
                    <g id="g630" transform="translate(77.917050, 22.680001) scale(-1, 1) rotate(-180.000000) translate(-77.917050, -22.680001) translate(75.511110, 19.080001)">
                        <g id="g632-Clipped">
                            <mask id="mask-20" fill="white">
                                <use xlink:href="#path-19"></use>
                            </mask>
                            <g id="path636"></g>
                            <g id="g632" mask="url(#mask-20)" stroke="#455864" stroke-width="2.59999985">
                                <g id="g638" transform="translate(0.000000, -0.000261)">
                                    <path d="M0,4.57333333 C0,5.65590667 0.878793236,6.53333333 1.95873248,6.53333333 L4.55670567,6.53333333 L4.55670567,8.88164867e-17 L1.95873248,8.88164867e-17 C0.876840363,8.88164867e-17 0,0.881346667 0,1.96065333 L0,4.57333333 Z" id="path640"></path>
                                </g>
                            </g>
                        </g>
                    </g>
                    <g id="g642" transform="translate(5.637270, 18.693335) scale(-1, 1) rotate(-180.000000) translate(-5.637270, -18.693335) translate(1.627369, 18.293335)" stroke="#455864" stroke-width="1.29999992" stroke-linecap="round" stroke-linejoin="round">
                        <path d="M8.88177573e-17,0 L7.81149544,0" id="path644"></path>
                    </g>
                    <g id="g646" transform="translate(46.669233, 26.523453) scale(-1, 1) rotate(-180.000000) translate(-46.669233, -26.523453) translate(44.263292, 24.123453)" fill-rule="nonzero" fill="#FFFFFF">
                        <polygon id="path648" points="0 2.61333333 2.31155169 0.292693333 4.23838723 2.22656 1.92683554 4.54654667"></polygon>
                    </g>
                    <g id="g650" transform="translate(46.421101, 26.493335) scale(-1, 1) rotate(-180.000000) translate(-46.421101, -26.493335) translate(43.614170, 24.093335)">
                        <g id="g652-Clipped" transform="translate(0.000000, -0.000000)">
                            <mask id="mask-22" fill="white">
                                <use xlink:href="#path-21"></use>
                            </mask>
                            <g id="path656"></g>
                            <g id="g652" mask="url(#mask-22)">
                                <g transform="translate(-0.000000, -0.653333)" id="g658">
                                    <g transform="translate(0.648940, 0.622953)">
                                        <polygon id="path660" stroke="#455864" stroke-width="2.59999985" points="0 2.61333333 1.92683554 4.5472 4.23903819 2.22656 2.31220265 0.292693333"></polygon>
                                    </g>
                                </g>
                            </g>
                        </g>
                    </g>
                    <g id="g662" transform="translate(50.983014, 32.400001) scale(-1, 1) rotate(-180.000000) translate(-50.983014, -32.400001) translate(42.963212, 24.800001)">
                        <g id="g664-Clipped" transform="translate(0.000000, -0.000000)">
                            <mask id="mask-24" fill="white">
                                <use xlink:href="#path-23"></use>
                            </mask>
                            <g id="path668"></g>
                            <g id="g664" mask="url(#mask-24)">
                                <g transform="translate(0.000000, 0.000000)">
                                    <g id="g670" transform="translate(0.648940, 0.142100)">
                                        <path d="M0,9.8 L5.00977241,14.8280533 L13.6772775,6.12892 C15.0625161,4.73862667 15.0612142,2.48332 13.6805323,1.0976 C12.2972467,-0.290733333 10.0527437,-0.289426667 8.66750514,1.10086667 L0,9.8 Z" id="path672" fill="#FFFFFF" fill-rule="nonzero"></path>
                                    </g>
                                    <g id="g674" transform="translate(0.648940, 0.142100)">
                                        <path d="M0,9.8 L5.00977241,14.8280533 L13.6772775,6.12892 C15.0625161,4.73862667 15.0612142,2.48332 13.6805323,1.0976 C12.2972467,-0.290733333 10.0527437,-0.289426667 8.66750514,1.10086667 L0,9.8 Z" id="path676" stroke="#455864" stroke-width="2.59999985"></path>
                                    </g>
                                </g>
                            </g>
                        </g>
                    </g>
                    <g id="g678" transform="translate(38.068008, 17.546668) scale(-1, 1) rotate(-180.000000) translate(-38.068008, -17.546668) translate(26.038305, 5.546668)">
                        <g id="g680-Clipped">
                            <mask id="mask-26" fill="white">
                                <use xlink:href="#path-25"></use>
                            </mask>
                            <g id="path684"></g>
                            <g id="g680" mask="url(#mask-26)">
                                <g transform="translate(-9.113411, -9.800000)" id="g686">
                                    <g transform="translate(0.249968, 0.566309)">
                                        <polygon id="path688" fill="#DDDEDD" fill-rule="nonzero" points="0 20.9066667 20.9276472 41.91068 41.4744841 21.2888667 20.5468368 0.284853333"></polygon>
                                    </g>
                                </g>
                            </g>
                        </g>
                    </g>
                    <g id="g692" transform="translate(38.068008, 17.546668) scale(-1, 1) rotate(-180.000000) translate(-38.068008, -17.546668) translate(26.038305, 5.546668)" stroke="#455864" stroke-width="1.29999992">
                        <g id="g698" transform="translate(0.074535, 0.376059)">
                            <path d="M20.1796965,3.92 C24.4473769,8.67365333 24.1544458,15.9152 19.5261348,20.0952267 C14.8978237,24.2746 7.68651151,23.8094267 3.41883117,19.0557733 C-0.848198213,14.3027733 -0.555918092,7.06057333 4.07239295,2.8812 C8.700704,-1.29882667 15.9120162,-0.833653333 20.1796965,3.92 Z" id="path700"></path>
                        </g>
                    </g>
                    <g id="g702" transform="translate(38.114877, 17.733335) scale(-1, 1) rotate(-180.000000) translate(-38.114877, -17.733335) translate(29.293095, 8.533335)">
                        <g id="g704-Clipped">
                            <mask id="mask-28" fill="white">
                                <use xlink:href="#path-27"></use>
                            </mask>
                            <g id="path708"></g>
                            <g id="g704" mask="url(#mask-28)">
                                <g transform="translate(-8.462453, -7.840000)" id="g710">
                                    <g transform="translate(0.490171, 0.019861)">
                                        <polygon id="path712" fill="#D5EEFF" fill-rule="nonzero" points="0 16.9866667 16.7419876 33.7897467 33.4078131 17.0631067 16.6658255 0.260026667"></polygon>
                                    </g>
                                </g>
                            </g>
                        </g>
                    </g>
                    <g id="g716" transform="translate(42.142137, 22.233335) scale(-1, 1) rotate(-180.000000) translate(-42.142137, -22.233335) translate(28.642137, 7.733335)" stroke="#455864" stroke-width="1.29999992">
                        <g id="g722" transform="translate(0.441675, 10.338151)">
                            <path d="M14.9720329,2.61333333 C18.3244664,5.97734667 18.3413913,11.41504 15.0104394,14.7581467 C11.6794876,18.1012533 6.26156455,18.0842667 2.90913109,14.7202533 C-0.442651408,11.3555867 -0.459576315,5.91789333 2.87137553,2.57478667 C6.20232738,-0.76832 11.6202504,-0.75068 14.9720329,2.61333333 Z" id="path724"></path>
                        </g>
                        <g id="g726" transform="translate(19.786909, 0.142100)" stroke-linecap="square">
                            <path d="M0,6.53333333 L6.31884885,0.19208" id="path728"></path>
                        </g>
                    </g>
                </g>
            </g>
        </g>
    </g>
</svg>