<?xml version="1.0" encoding="UTF-8"?>
<svg width="68px" height="55px" viewBox="0 0 68 55" version="1.1" xmlns="http://www.w3.org/2000/svg">
    <!-- Generator: Sketch 51.2 (57519) - http://www.bohemiancoding.com/sketch -->
    <title>Group 6</title>
    <desc>Created with Sketch.</desc>
    <defs></defs>
    <g id="Hero-Tests" stroke="none" stroke-width="1" fill="none" fill-rule="evenodd">
        <g id="CM-hero-1-Desktop-HD---A" transform="translate(-214.000000, -635.000000)">
            <g id="quick-hitting-facts" transform="translate(0.000000, 603.000000)">
                <g id="Group-6" transform="translate(214.000000, 32.000000)">
                    <path d="M2,32 C-1,46.6666667 5.33333333,54 21,54 C36.6666667,54 42.3333333,54 38,54 L43.5,30 L2,32 Z" id="Path-3" fill="#009DFF" fill-rule="nonzero"></path>
                    <path d="M44,29.5 L40,53.5 C39.3333333,53.5 38.3333333,53.5 37,53.5 C35,53.5 35,51 35,48 C35,46 35,43.5 35,40.5 L32,39 L32,37 L36,37 L40,29.5 L44,29.5 Z" id="Path-4" fill="#FAFAFA" fill-rule="nonzero"></path>
                    <g id="Group-34">
                        <path d="M59.9910316,36.7693505 L57.5276932,32.2279953 C57.477588,32.135986 57.3814677,32.0789299 57.2776782,32.0789299 L41.9761444,32.0789299 C41.8723549,32.0789299 41.7762346,32.135986 41.7266406,32.2274813 L39.262791,36.7693505 L45.9216782,36.7693505 L59.9910316,36.7693505 Z" id="Fill-1" fill="#009DFF"></path>
                        <path d="M15.1373624,9.01485981 L30.3673173,9.01485981 L35.4463549,4.06640187 L33.8930917,2.50481308 C32.6164301,1.22285047 30.5411519,1.22336449 29.2665353,2.50481308 L27.0261143,4.75724299 L25.7366707,3.46140187 C24.939588,2.66056075 23.8797083,2.21850467 22.7523398,2.21850467 C21.6249714,2.21850467 20.5650917,2.66056075 19.768009,3.46140187 L18.4785654,4.75724299 L16.2381444,2.50481308 C15.6205203,1.8838785 14.7988962,1.54205607 13.9256331,1.54205607 C13.0513474,1.54205607 12.2297233,1.8838785 11.6120992,2.50481308 L10.0588361,4.06640187 L15.1373624,9.01485981 Z M30.9885203,10.5569159 L14.5161594,10.5569159 L7.8731218,4.08336449 L10.5276782,1.41457944 C11.435197,0.501682243 12.6418135,0 13.9256331,0 C15.2089414,0 16.4155579,0.501682243 17.3225654,1.41457944 L18.4785654,2.5767757 L18.683588,2.37116822 C19.7705654,1.27836449 21.2154376,0.676448598 22.7523398,0.676448598 C24.2892421,0.676448598 25.7346256,1.27836449 26.821603,2.37116822 L27.0261143,2.5767757 L28.1821143,1.41457944 C30.0549263,-0.468271028 33.1036782,-0.469299065 34.9775128,1.41457944 L37.6320692,4.08336449 L30.9885203,10.5569159 Z" id="Fill-5" fill="#344154"></path>
                        <g id="Group-9" transform="translate(31.187970, 28.248411)" fill="#344154">
                            <path d="M8.3933985,20.4076215 L28.4845865,20.4076215 L28.4845865,23.7456589 C28.4845865,24.5403318 29.1277744,25.1869673 29.9182105,25.1869673 L31.1478346,25.1869673 C31.9382707,25.1869673 32.5814586,24.5403318 32.5814586,23.7456589 L32.5814586,11.622528 L35.1920451,10.6633692 L35.1920451,9.2482757 L32.8708421,9.2482757 C31.8631128,9.2482757 30.937188,8.69570561 30.4535188,7.80593925 L27.9104211,3.11706075 C27.546391,2.44780841 26.8490075,2.03145327 26.0897594,2.03145327 L10.7882256,2.03145327 C10.0289774,2.03145327 9.33159398,2.44780841 8.96756391,3.11757477 L6.42395489,7.80542523 C5.94079699,8.69570561 5.01487218,9.2482757 4.00714286,9.2482757 L1.68645113,9.2482757 L1.68645113,10.6638832 L4.29652632,11.622528 L4.29652632,23.7456589 C4.29652632,24.5403318 4.93971429,25.1869673 5.73015038,25.1869673 L6.95977444,25.1869673 C7.75021053,25.1869673 8.3933985,24.5403318 8.3933985,23.7456589 L8.3933985,20.4076215 Z M31.1478346,26.7290234 L29.9182105,26.7290234 C28.281609,26.7290234 26.9507519,25.3905187 26.9507519,23.7456589 L26.9507519,21.9496776 L9.92723308,21.9496776 L9.92723308,23.7456589 C9.92723308,25.3905187 8.59586466,26.7290234 6.95977444,26.7290234 L5.73015038,26.7290234 C4.09406015,26.7290234 2.76269173,25.3905187 2.76269173,23.7456589 L2.76269173,12.7009393 L1.00798496,12.0563598 C0.496195489,11.867715 0.152616541,11.373229 0.152616541,10.8257991 L0.152616541,9.01542523 C0.152616541,8.29374299 0.736496241,7.70621963 1.45484211,7.70621963 L4.00714286,7.70621963 C4.45348872,7.70621963 4.86404511,7.46103271 5.07827068,7.06729439 L7.62136842,2.37944393 C8.25433083,1.21313551 9.46759398,0.489397196 10.7882256,0.489397196 L26.0897594,0.489397196 C27.410391,0.489397196 28.6236541,1.21313551 29.2566165,2.37892991 L31.7997143,7.06780841 C32.0139398,7.46103271 32.4244962,7.70621963 32.8708421,7.70621963 L35.4231429,7.70621963 C36.1414887,7.70621963 36.7258797,8.29374299 36.7258797,9.01542523 L36.7258797,10.8257991 C36.7258797,11.373229 36.3823008,11.867715 35.8705113,12.0558458 L34.1152932,12.7009393 L34.1152932,23.7456589 C34.1152932,25.3905187 32.7839248,26.7290234 31.1478346,26.7290234 Z" id="Fill-7"></path>
                        </g>
                        <path d="M43.164815,45.9920794 L37.144003,45.9920794 C36.7206647,45.9920794 36.3770857,45.6466589 36.3770857,45.2210514 C36.3770857,44.7954439 36.7206647,44.4500234 37.144003,44.4500234 L41.6309805,44.4500234 L41.6309805,44.2917056 C41.6309805,43.7442757 41.2245143,43.2713785 40.6856271,43.1927336 L37.233988,42.6869393 C36.8147398,42.625771 36.5248451,42.2340888 36.5856872,41.8131075 C36.6465293,41.3916121 37.039191,41.1006776 37.4548602,41.1613318 L40.9064992,41.6666121 C42.194409,41.854743 43.164815,42.983528 43.164815,44.2917056 L43.164815,45.9920794 Z" id="Fill-10" fill="#344154"></path>
                        <path d="M62.1100241,45.9920794 L56.0887008,45.9920794 L56.0887008,44.2917056 C56.0887008,42.983528 57.059618,41.854743 58.3475278,41.6666121 L61.7991669,41.1613318 C62.2168812,41.1006776 62.6074977,41.3916121 62.6683398,41.8131075 C62.729182,42.2340888 62.4392872,42.625771 62.0195278,42.6869393 L58.5678887,43.1927336 C58.0290015,43.2713785 57.6225353,43.7442757 57.6225353,44.2917056 L57.6225353,44.4500234 L62.1100241,44.4500234 C62.5333624,44.4500234 62.8769414,44.7954439 62.8769414,45.2210514 C62.8769414,45.6466589 62.5333624,45.9920794 62.1100241,45.9920794" id="Fill-12" fill="#344154"></path>
                        <path d="M53.4672752,46.0764299 L45.7868541,46.0764299 C45.3630045,46.0764299 45.0199368,45.7310093 45.0199368,45.3054019 C45.0199368,44.8797944 45.3630045,44.5343738 45.7868541,44.5343738 L53.4672752,44.5343738 C53.8906135,44.5343738 54.2341925,44.8797944 54.2341925,45.3054019 C54.2341925,45.7310093 53.8906135,46.0764299 53.4672752,46.0764299" id="Fill-14" fill="#344154"></path>
                        <path d="M53.4682466,46.0764299 C53.4385925,46.0764299 53.4094496,46.0748879 53.3792842,46.0712897 C52.9585023,46.022972 52.6568481,45.640028 52.7054195,45.2169907 L52.957991,43.0190467 L46.2960361,43.0190467 L46.5486075,45.2169907 C46.5971789,45.640028 46.2955248,46.022972 45.8742316,46.0712897 C45.4544722,46.1206355 45.0730586,45.8168505 45.0244872,45.3938131 L44.5750737,41.4769907 L54.6784421,41.4769907 L54.2290286,45.3938131 C54.1840361,45.7870374 53.8522165,46.0764299 53.4682466,46.0764299" id="Fill-16" fill="#344154"></path>
                        <path d="M40.3482857,50.1980888 L38.0465113,50.1980888 C37.6231729,50.1980888 37.279594,49.8526682 37.279594,49.4270607 C37.279594,49.0014533 37.6231729,48.6560327 38.0465113,48.6560327 L40.3482857,48.6560327 C40.7716241,48.6560327 41.115203,49.0014533 41.115203,49.4270607 C41.115203,49.8526682 40.7716241,50.1980888 40.3482857,50.1980888" id="Fill-18" fill="#344154"></path>
                        <path d="M61.8693654,50.1980888 L58.9054857,50.1980888 C58.4821474,50.1980888 58.1385684,49.8526682 58.1385684,49.4270607 C58.1385684,49.0014533 58.4821474,48.6560327 58.9054857,48.6560327 L61.8693654,48.6560327 C62.2927038,48.6560327 62.6362827,49.0014533 62.6362827,49.4270607 C62.6362827,49.8526682 62.2927038,50.1980888 61.8693654,50.1980888" id="Fill-20" fill="#344154"></path>
                        <path d="M40.3482857,50.1980888 L37.384406,50.1980888 C36.9610677,50.1980888 36.6174887,49.8526682 36.6174887,49.4270607 C36.6174887,49.0014533 36.9610677,48.6560327 37.384406,48.6560327 L40.3482857,48.6560327 C40.7716241,48.6560327 41.115203,49.0014533 41.115203,49.4270607 C41.115203,49.8526682 40.7716241,50.1980888 40.3482857,50.1980888" id="Fill-22" fill="#344154"></path>
                        <path d="M37.3844571,54.9773832 L22.6529985,54.9773832 C14.1335699,54.9773832 7.90926917,53.046215 4.15137444,49.2378505 C1.35979549,46.4081776 -0.0365052632,42.6183178 0.000818045113,37.9736449 C0.0381413534,33.3371963 1.64457744,28.6411215 4.52307368,24.7484579 L13.5440662,12.5507944 L31.3754045,12.5507944 L31.3754045,14.0928505 L14.3150737,14.0928505 L5.75423158,25.6685514 C3.06797594,29.3006075 1.56941955,33.6749065 1.53465263,37.9859813 C1.50039699,42.2045327 2.74740451,45.6253271 5.24039699,48.152243 C8.69970526,51.6578505 14.5579308,53.4353271 22.6529985,53.4353271 L37.3844571,53.4353271 L37.3844571,54.9773832 Z" id="Fill-26" fill="#344154"></path>
                        <path d="M42.3249895,29.8231075 C41.6761774,28.3643224 40.8606887,26.9667056 39.9010195,25.6693224 L31.1090797,13.7816121 L32.3407489,12.8620327 L41.1316662,24.749229 C42.1583128,26.1365654 43.0310647,27.6323598 43.7248692,29.1934346 L42.3249895,29.8231075 Z" id="Fill-28" fill="#344154"></path>
                        <path d="M13.3289203,10.5569159 C13.069191,10.5569159 12.8498526,10.7779439 12.8498526,11.0385514 L12.8498526,12.0686449 C12.8498526,12.3297664 13.069191,12.5507944 13.3289203,12.5507944 L31.9767699,12.5507944 C32.235988,12.5507944 32.4558376,12.3297664 32.4558376,12.0686449 L32.4558376,11.0385514 C32.4558376,10.7779439 32.235988,10.5569159 31.9767699,10.5569159 L13.3289203,10.5569159 Z M31.9767699,14.0928505 L13.3289203,14.0928505 C12.2189353,14.0928505 11.3155068,13.1845794 11.3155068,12.0686449 L11.3155068,11.0385514 C11.3155068,9.92313084 12.2189353,9.01485981 13.3289203,9.01485981 L31.9767699,9.01485981 C33.0867549,9.01485981 33.9896722,9.92313084 33.9896722,11.0385514 L33.9896722,12.0686449 C33.9896722,13.1845794 33.0867549,14.0928505 31.9767699,14.0928505 Z" id="Fill-30" fill="#344154"></path>
                        <path d="M15.1373624,9.01485981 L30.3673173,9.01485981 L35.4463549,4.06640187 L33.8930917,2.50481308 C32.6164301,1.22285047 30.5411519,1.22336449 29.2665353,2.50481308 L27.0261143,4.75724299 L25.7366707,3.46140187 C24.939588,2.66056075 23.8797083,2.21850467 22.7523398,2.21850467 C21.6249714,2.21850467 20.5650917,2.66056075 19.768009,3.46140187 L18.4785654,4.75724299 L16.2381444,2.50481308 C15.6205203,1.8838785 14.7988962,1.54205607 13.9256331,1.54205607 C13.0513474,1.54205607 12.2297233,1.8838785 11.6120992,2.50481308 L10.0588361,4.06640187 L15.1373624,9.01485981 Z M30.9885203,10.5569159 L14.5161594,10.5569159 L7.8731218,4.08336449 L10.5276782,1.41457944 C11.435197,0.501682243 12.6418135,0 13.9256331,0 C15.2089414,0 16.4155579,0.501682243 17.3225654,1.41457944 L18.4785654,2.5767757 L18.683588,2.37116822 C19.7705654,1.27836449 21.2154376,0.676448598 22.7523398,0.676448598 C24.2892421,0.676448598 25.7346256,1.27836449 26.821603,2.37116822 L27.0261143,2.5767757 L28.1821143,1.41457944 C30.0549263,-0.468271028 33.1036782,-0.469299065 34.9775128,1.41457944 L37.6320692,4.08336449 L30.9885203,10.5569159 Z" id="Fill-32" fill="#344154"></path>
                    </g>
                    <text id="£" font-family="ProximaNova-Semibold, Proxima Nova" font-size="20" font-weight="500" fill="#000000">
                        <tspan x="17" y="39">£</tspan>
                    </text>
                </g>
            </g>
        </g>
    </g>
</svg>