<svg xmlns="http://www.w3.org/2000/svg" width="120" height="120" viewBox="0 0 240 240"><g transform="translate(0 5.224)" stroke="#455864"><path d="M119.396-.24C56.198-.24 4.966 51.45 4.967 115.214c0 63.762 51.232 115.45 114.429 115.45 63.196 0 114.428-51.688 114.428-115.45C233.826 51.451 182.594-.24 119.396-.24zm0 31.473c55.778 0 85.276 28.919 85.276 83.981 0 55.063-29.498 83.98-85.276 83.981-55.779 0-85.277-28.918-85.277-83.98 0-55.063 29.498-83.981 85.277-83.982z" fill="#ddd" stroke-width="5" stroke-linecap="square"/><path d="M119.396 21.601a93.614 93.614 0 0 0-93.614 93.614 93.614 93.614 0 0 0 93.614 93.613 93.614 93.614 0 0 0 93.613-93.613A93.614 93.614 0 0 0 119.396 21.6zm0 17.974c41.773 0 75.64 33.866 75.64 75.64 0 41.773-33.867 75.636-75.64 75.636-41.774 0-75.636-33.863-75.636-75.636 0-41.774 33.862-75.64 75.636-75.64z" fill="#ffeada" stroke-width="5" stroke-linecap="square"/><path d="M119.4 21.607a75.257 75.257 0 0 0-10.263.788l.039.354c.131 1.262.151 2.433.046 2.603-.105.17-.44 25.676-.746 34.016-.803 21.87-1.455 25.699-5.038 29.62-2.098 2.295-4.568 3.712-7.798 4.473-1.31.309-2.8.54-3.311.518-1.95-.083-6.596-1.016-8.86-1.782-14.046-3.228-28.795-9.422-43.325-13.733-2.683-.785-5.07-1.435-5.864-1.614a75.244 75.244 0 0 0-6.075 19.433c6.976 1.69 51.997 18.54 55.758 20.946 3.938 2.52 6.273 6.34 6.892 11.269.397 3.172.222 4.528-.99 7.697-1.145 2.99-26.905 35.315-33.941 44.992a28.167 28.167 0 0 1-1.264 1.6 75.245 75.245 0 0 0 16.632 11.935 29.3 29.3 0 0 1 1.449-2.178c8.427-11.671 30.6-35.855 35.47-40.973 3.02-3.174 5.559-4.574 9.411-5.194 4.424-.713 9.572 1.112 13.093 4.634 3.535 3.536 18.353 21.852 23.305 28.806.458.644 12.457 14.684 12.78 15.214a75.246 75.246 0 0 0 16.607-12.086c-.137-.167-.278-.297-.404-.484-.579-.861-14.086-17.023-15.755-19.423-8.291-11.92-16.326-24.182-17.593-26.843-1.384-2.908-1.415-3.062-1.415-7.242 0-3.75.107-4.491.885-6.07 1.386-2.818 4.232-5.432 8.03-7.377 3.977-2.037 15.26-6.546 23.034-9.205 3.065-1.048 6.655-2.331 7.983-2.856 2.02-.798 21.3-6.853 22.602-7.248a75.243 75.243 0 0 0-6.382-19.252c-2.453.915-24.89 7.938-27.733 8.68-1.124.294-2.51.718-3.08.94-2.61 1.016-20.381 5.784-24.412 6.55-3.493.665-4.499.641-7.099-.176-5.91-1.86-10.386-7.42-11.087-13.768-.908-8.21-1.617-41.705-1.837-56.848a75.242 75.242 0 0 0-9.744-.716z" fill="#d2eeff" stroke-width="5"/><circle cx="119.396" cy="115.214" r="8.954" fill="none" stroke-width="5" stroke-linecap="square"/><circle cx="119.448" cy="93.914" r="3.681" fill="#455864" stroke-width="3.1" stroke-linecap="square"/><circle cx="139.501" cy="108.477" r="3.681" fill="#455864" stroke-width="3.1" stroke-linecap="square"/><circle cx="132.235" cy="131.919" r="3.681" fill="#455864" stroke-width="3.1" stroke-linecap="square"/><circle cx="107.339" cy="132.081" r="3.681" fill="#455864" stroke-width="3.1" stroke-linecap="square"/><circle cx="99.913" cy="108.67" r="3.681" fill="#455864" stroke-width="3.1" stroke-linecap="square"/></g></svg>