<?xml version="1.0" encoding="UTF-8" standalone="no"?>
<svg width="86px" height="63px" viewBox="0 0 86 63" version="1.1" xmlns="http://www.w3.org/2000/svg" xmlns:xlink="http://www.w3.org/1999/xlink">
    <!-- Generator: Sketch 44 (41411) - http://www.bohemiancoding.com/sketch -->
    <title>instant_quote_icon</title>
    <desc>Created with Sketch.</desc>
    <defs>
        <path d="M63.7578234,42.2128112 L1.41684052,42.2128112 C0.634390343,42.2128112 0,41.588042 0,40.8174584 L0,1.74757787 C0,0.976994247 0.634390343,0.352224997 1.41684052,0.352224997 L63.7578234,0.352224997 C64.5402736,0.352224997 65.1746639,0.976994247 65.1746639,1.74757787 L65.1746639,40.8174584 C65.1746639,41.588042 64.5402736,42.2128112 63.7578234,42.2128112 Z" id="path-1"></path>
    </defs>
    <g id="Current-design" stroke="none" stroke-width="1" fill="none" fill-rule="evenodd">
        <g id="How-it-works-modal" transform="translate(-957.000000, -410.000000)">
            <g id="instant_quote_icon" transform="translate(959.000000, 411.000000)">
                <g id="Page-1" transform="translate(0.000000, 17.017663)">
                    <g id="Fill-4">
                        <use fill="#009EFF" fill-rule="evenodd" xlink:href="#path-1"></use>
                        <path stroke="#43505D" stroke-width="2" d="M63.7578234,43.2128112 L1.41684052,43.2128112 C0.0854974069,43.2128112 -1,42.1437764 -1,40.8174584 L-1,1.74757787 C-1,0.421259871 0.0854974069,-0.647775003 1.41684052,-0.647775003 L63.7578234,-0.647775003 C65.0891665,-0.647775003 66.1746639,0.421259871 66.1746639,1.74757787 L66.1746639,40.8174584 C66.1746639,42.1437764 65.0891665,43.2128112 63.7578234,43.2128112 Z"></path>
                    </g>
                    <path d="M52.4230993,4.53828362 L12.7515647,4.53828362 C12.7515647,9.16209235 8.94553433,12.9104009 4.25052156,12.9104009 L4.25052156,29.6546354 C8.94553433,29.6546354 12.7515647,33.4029439 12.7515647,38.0267526 L52.4230993,38.0267526 C52.4230993,33.4029439 56.2291296,29.6546354 60.9241424,29.6546354 L60.9241424,12.9104009 C56.2291296,12.9104009 52.4230993,9.16209235 52.4230993,4.53828362 Z" id="Fill-5" fill="#C9EFFF"></path>
                    <path d="M39.6003383,14.3758702 C43.4735128,18.1903045 43.4735128,24.3747317 39.6003383,28.189166 C35.7271639,32.0036003 29.4475,32.0036003 25.5743256,28.189166 C21.7011512,24.3747317 21.7011512,18.1903045 25.5743256,14.3758702 C29.4475,10.5614359 35.7271639,10.5614359 39.6003383,14.3758702" id="Fill-6" fill="#009BFF"></path>
                </g>
                <g id="Page-1" transform="translate(48.044608, 0.000000)">
                    <path d="M29.5369052,5.47633113 C36.1535101,11.9925893 36.1535101,22.5575278 29.5369052,29.0737875 C22.9203004,35.5900461 12.1926678,35.5900461 5.57606136,29.0737875 C-1.0405439,22.5575278 -1.0405439,11.9925893 5.57606136,5.47633113 C12.1926678,-1.03992703 22.9203004,-1.03992703 29.5369052,5.47633113" id="Fill-1" stroke="#43505D" stroke-width="2" fill="#FFFFFF"></path>
                    <path d="M16.5564841,19.0696263 C16.1105395,19.0696263 15.7496804,18.7138586 15.7496804,18.2750585 L15.7496804,11.9456776 C15.7496804,11.5068776 16.1105395,11.1511099 16.5564841,11.1511099 C17.0024287,11.1511099 17.3632878,11.5068776 17.3632878,11.9456776 L17.3632878,18.2750585 C17.3632878,18.7138586 17.0024287,19.0696263 16.5564841,19.0696263 Z" id="Fill-4" fill="#43505D"></path>
                    <path d="M22.238128,19.0696263 L16.5564841,19.0696263 C16.1105395,19.0696263 15.7496804,18.7138586 15.7496804,18.2750585 C15.7496804,17.8362585 16.1105395,17.4804908 16.5564841,17.4804908 L22.238128,17.4804908 C22.6840726,17.4804908 23.0449316,17.8362585 23.0449316,18.2750585 C23.0449316,18.7138586 22.6840726,19.0696263 22.238128,19.0696263 Z" id="Fill-5" fill="#43505D"></path>
                </g>
            </g>
        </g>
    </g>
</svg>