<?xml version="1.0" encoding="UTF-8" standalone="no"?>
<svg width="55px" height="51px" viewBox="0 0 55 51" version="1.1" xmlns="http://www.w3.org/2000/svg" xmlns:xlink="http://www.w3.org/1999/xlink">
    <!-- Generator: Sketch 44 (41411) - http://www.bohemiancoding.com/sketch -->
    <title>liability_icon</title>
    <desc>Created with Sketch.</desc>
    <defs>
        <path d="M39.483871,0 L1.64516129,0 C0.736209677,0 0,0.736209677 0,1.64516129 L0,49.3548387 C0,50.2637903 0.736209677,51 1.64516129,51 L39.483871,51 C40.3928226,51 41.1290323,50.2637903 41.1290323,49.3548387 L41.1290323,1.64516129 C41.1290323,0.736209677 40.3928226,0 39.483871,0 Z" id="path-1"></path>
        <path d="M7.40322581,26.3225806 L0.822580645,26.3225806 C0.368516129,26.3225806 -8.2067686e-13,25.9540645 -8.2067686e-13,25.5 C-8.2067686e-13,25.0459355 0.368516129,24.6774194 0.822580645,24.6774194 L7.40322581,24.6774194 C7.85729032,24.6774194 8.22580645,25.0459355 8.22580645,25.5 C8.22580645,25.9540645 7.85729032,26.3225806 7.40322581,26.3225806 Z" id="path-2"></path>
        <path d="M10.5862553,18.0967742 L0.822580645,18.0967742 C0.368516129,18.0967742 -1.64135372e-12,17.7282581 -1.64135372e-12,17.2741935 C-1.64135372e-12,16.820129 0.368516129,16.4516129 0.822580645,16.4516129 L10.5862553,16.4516129 C11.0403198,16.4516129 11.4088359,16.820129 11.4088359,17.2741935 C11.4088359,17.7282581 11.0403198,18.0967742 10.5862553,18.0967742 Z" id="path-3"></path>
        <path d="M17.2384292,9.87096774 L0.822580645,9.87096774 C0.368516129,9.87096774 -8.2067686e-13,9.50245161 -8.2067686e-13,9.0483871 C-8.2067686e-13,8.59432258 0.368516129,8.22580645 0.822580645,8.22580645 L17.2384292,8.22580645 C17.6924937,8.22580645 18.0610098,8.59432258 18.0610098,9.0483871 C18.0610098,9.50245161 17.6924937,9.87096774 17.2384292,9.87096774 Z" id="path-4"></path>
        <path d="M20.5645161,1.64516129 L0.822580645,1.64516129 C0.368516129,1.64516129 -8.2067686e-13,1.27664516 -8.2067686e-13,0.822580645 C-8.2067686e-13,0.368516129 0.368516129,0 0.822580645,0 L20.5645161,0 C21.0185806,0 21.3870968,0.368516129 21.3870968,0.822580645 C21.3870968,1.27664516 21.0185806,1.64516129 20.5645161,1.64516129 Z" id="path-5"></path>
        <path d="M14.2283066,28.047482 L14.2283066,14.8474287 L2.56150192,14.8474287 C1.59656707,12.1199615 1.02651325,9.11530061 0.897360432,5.90459738 C5.43106972,5.61554515 10.4309168,4.07393325 14.2283066,1.78078556 L14.2283066,14.8474287 L25.8951112,14.8474287 C23.7722545,20.8434096 19.7343733,25.4993754 14.2283066,28.047482 Z" id="path-6"></path>
    </defs>
    <g id="Current-design" stroke="none" stroke-width="1" fill="none" fill-rule="evenodd">
        <g id="CR-LP-Vetting-v1" transform="translate(-532.000000, -526.000000)">
            <g id="Group-5" transform="translate(532.000000, 402.000000)">
                <g id="Group-11">
                    <g id="Group-3">
                        <g id="liability_icon" transform="translate(0.000000, 124.000000)">
                            <g id="Page-1">
                                <use fill="#C9EDFF" fill-rule="evenodd" xlink:href="#path-1"></use>
                                <path stroke="#43505D" stroke-width="2" d="M39.483871,1 L1.64516129,1 C1.28849443,1 1,1.28849443 1,1.64516129 L1,49.3548387 C1,49.7115056 1.28849443,50 1.64516129,50 L39.483871,50 C39.8405378,50 40.1290323,49.7115056 40.1290323,49.3548387 L40.1290323,1.64516129 C40.1290323,1.28849443 39.8405378,1 39.483871,1 Z"></path>
                            </g>
                            <g id="Group-24" transform="translate(9.870968, 11.516129)">
                                <g id="Path">
                                    <use fill="#FFFFFF" fill-rule="evenodd" xlink:href="#path-2"></use>
                                    <path stroke="#43505D" stroke-width="2" d="M7.40322581,25.3225806 L0.822580645,25.3225806 C0.920800879,25.3225806 1,25.4017798 1,25.5 C1,25.5982202 0.920800879,25.6774194 0.822580645,25.6774194 L7.40322581,25.6774194 C7.30500557,25.6774194 7.22580645,25.5982202 7.22580645,25.5 C7.22580645,25.4017798 7.30500557,25.3225806 7.40322581,25.3225806 Z"></path>
                                </g>
                                <g id="Path">
                                    <use fill="#FFFFFF" fill-rule="evenodd" xlink:href="#path-3"></use>
                                    <path stroke="#43505D" stroke-width="2" d="M10.5862553,17.0967742 L0.822580645,17.0967742 C0.920800879,17.0967742 1,17.1759733 1,17.2741935 C1,17.3724138 0.920800879,17.4516129 0.822580645,17.4516129 L10.5862553,17.4516129 C10.488035,17.4516129 10.4088359,17.3724138 10.4088359,17.2741935 C10.4088359,17.1759733 10.488035,17.0967742 10.5862553,17.0967742 Z"></path>
                                </g>
                                <g id="Path">
                                    <use fill="#FFFFFF" fill-rule="evenodd" xlink:href="#path-4"></use>
                                    <path stroke="#43505D" stroke-width="2" d="M17.2384292,8.87096774 L0.822580645,8.87096774 C0.920800879,8.87096774 1,8.95016686 1,9.0483871 C1,9.14660733 0.920800879,9.22580645 0.822580645,9.22580645 L17.2384292,9.22580645 C17.1402089,9.22580645 17.0610098,9.14660733 17.0610098,9.0483871 C17.0610098,8.95016686 17.1402089,8.87096774 17.2384292,8.87096774 Z"></path>
                                </g>
                                <g id="Path">
                                    <use fill="#FFFFFF" fill-rule="evenodd" xlink:href="#path-5"></use>
                                    <path stroke="#43505D" stroke-width="2" d="M20.5645161,0.64516129 L0.822580645,0.64516129 C0.920800879,0.64516129 1,0.724360411 1,0.822580645 C1,0.920800879 0.920800879,1 0.822580645,1 L20.5645161,1 C20.4662959,1 20.3870968,0.920800879 20.3870968,0.822580645 C20.3870968,0.724360411 20.4662959,0.64516129 20.5645161,0.64516129 Z"></path>
                                </g>
                            </g>
                            <g id="Group-23" transform="translate(25.500000, 21.065217)">
                                <path d="M26.9477419,4.60585306 C22.8965981,4.60585306 18.1383968,3.18229816 14.8276742,0.977133459 C14.3965103,0.688834761 13.8357406,0.688834761 13.4045768,0.977133459 C10.092571,3.18229816 5.33436968,4.60585306 1.28322581,4.60585306 C0.574885161,4.60585306 0,5.17860647 0,5.8871806 C0,16.6170175 5.08799032,25.2006307 13.6098929,28.8472901 C13.7715794,28.9164805 13.9435316,28.9510764 14.1154839,28.9510764 C14.2874361,28.9510764 14.4593884,28.9164805 14.6210748,28.8472889 C23.1429774,25.2006307 28.2309677,16.6170175 28.2309677,5.8871806 C28.2309677,5.17860647 27.6560826,4.60585306 26.9477419,4.60585306 Z" id="Page-1" stroke="#43505D" stroke-width="2" fill="#009BFF"></path>
                                <g id="Path">
                                    <use fill="#FFFFFF" fill-rule="evenodd" xlink:href="#path-6"></use>
                                    <path d="M14.2283066,28.047482 L14.2283066,14.8474287 L2.56150192,14.8474287 C1.59656707,12.1199615 1.02651325,9.11530061 0.897360432,5.90459738 C5.43106972,5.61554515 10.4309168,4.07393325 14.2283066,1.78078556 L14.2283066,14.8474287 L25.8951112,14.8474287 C23.7722545,20.8434096 19.7343733,25.4993754 14.2283066,28.047482 Z"></path>
                                </g>
                            </g>
                        </g>
                    </g>
                </g>
            </g>
        </g>
    </g>
</svg>