<?xml version="1.0" encoding="UTF-8" standalone="no"?>
<!-- Created with Inkscape (http://www.inkscape.org/) -->

<svg
   xmlns:osb="http://www.openswatchbook.org/uri/2009/osb"
   xmlns:dc="http://purl.org/dc/elements/1.1/"
   xmlns:cc="http://creativecommons.org/ns#"
   xmlns:rdf="http://www.w3.org/1999/02/22-rdf-syntax-ns#"
   xmlns:svg="http://www.w3.org/2000/svg"
   xmlns="http://www.w3.org/2000/svg"
   xmlns:sodipodi="http://sodipodi.sourceforge.net/DTD/sodipodi-0.dtd"
   xmlns:inkscape="http://www.inkscape.org/namespaces/inkscape"
   id="svg4190"
   version="1.1"
   inkscape:version="0.91 r13725"
   width="2062.0791"
   height="374.99869"
   viewBox="0 0 2062.0791 374.99869"
   sodipodi:docname="star-row_full.svg">
  <metadata
     id="metadata4196">
    <rdf:RDF>
      <cc:Work
         rdf:about="">
        <dc:format>image/svg+xml</dc:format>
        <dc:type
           rdf:resource="http://purl.org/dc/dcmitype/StillImage" />
        <dc:title></dc:title>
      </cc:Work>
    </rdf:RDF>
  </metadata>
  <defs
     id="defs4194">
    <linearGradient
       id="linearGradient4232"
       osb:paint="solid">
      <stop
         style="stop-color:#ffae00;stop-opacity:0;"
         offset="0"
         id="stop4234" />
    </linearGradient>
    <linearGradient
       id="linearGradient4226"
       osb:paint="solid">
      <stop
         style="stop-color:#ffae00;stop-opacity:0;"
         offset="0"
         id="stop4228" />
    </linearGradient>
  </defs>
  <sodipodi:namedview
     pagecolor="#ffffff"
     bordercolor="#666666"
     borderopacity="1"
     objecttolerance="10"
     gridtolerance="10"
     guidetolerance="10"
     inkscape:pageopacity="0"
     inkscape:pageshadow="2"
     inkscape:window-width="2198"
     inkscape:window-height="1192"
     id="namedview4192"
     showgrid="false"
     fit-margin-top="0"
     fit-margin-left="0"
     fit-margin-right="0"
     fit-margin-bottom="0"
     inkscape:zoom="1.0155039"
     inkscape:cx="989.67724"
     inkscape:cy="77.209928"
     inkscape:window-x="0"
     inkscape:window-y="0"
     inkscape:window-maximized="0"
     inkscape:current-layer="svg4190" />
  <path
     style="fill:#ffae00;fill-opacity:1"
     d="m 74.703498,373.18374 c -3.38878,-3.74457 -3.89497,-7.48259 -2.28169,-16.84949 0.83697,-4.85957 2.64375,-15.36058 4.01507,-23.33558 1.37131,-7.975 3.89231,-22.6 5.60222,-32.5 1.70991,-9.9 3.95932,-22.95 4.9987,-29 1.03937,-6.05 2.58917,-14.99645 3.444,-19.88099 0.85482,-4.88454 1.55422,-9.44069 1.55422,-10.12476 0,-0.68407 -20.05511,-20.7307 -44.566915,-44.54807 C 22.957301,173.12749 2.2573011,152.39348 1.4691031,150.86927 c -3.45002,-6.6716 -0.66602998,-12.86304 6.698188,-14.8964 2.9796279,-0.82272 92.8432489,-14.15308 115.7629889,-17.17228 l 8.39425,-1.10577 27.82009,-56.362778 c 16.88573,-34.21004 28.8741,-57.3396 30.50177,-58.84808 3.1939,-2.95999998 8.74199,-3.32763998 12.3267,-0.81681 1.57897,1.10595 11.92233,20.95226 30.67905,58.8654 l 28.29697,57.196928 5.29345,0.68087 c 18.42574,2.37002 115.88551,16.79584 118.67504,17.56607 7.32023,2.02121 10.13477,8.22958 6.71944,14.82191 -0.76944,1.48519 -21.46944,22.23293 -46,46.10609 -24.53056,23.87317 -44.60102,43.78923 -44.60102,44.25792 0,0.46869 4.54629,27.0611 10.10286,59.09425 5.55658,32.03314 10.12086,60.63616 10.14286,63.56226 0.0565,7.51319 -2.36381,10.57673 -8.68087,10.98806 -4.49858,0.29292 -7.4857,-1.13625 -60.0906,-28.75 -30.44619,-15.98203 -55.82973,-29.05824 -56.40789,-29.05824 -0.57815,0 -13.9921,6.80149 -29.80877,15.11443 -81.823382,43.00478 -81.583212,42.88557 -86.404402,42.88557 -3.1188,0 -5.05818,-0.56903 -6.18571,-1.81493 z m 417.000002,0 c -3.38878,-3.74457 -3.89497,-7.48259 -2.28169,-16.84949 0.83697,-4.85957 2.64375,-15.36058 4.01506,-23.33558 1.37132,-7.975 3.89232,-22.6 5.60223,-32.5 1.7099,-9.9 3.95932,-22.95 4.9987,-29 1.03937,-6.05 2.58917,-14.99645 3.444,-19.88099 0.85482,-4.88454 1.55422,-9.44069 1.55422,-10.12476 0,-0.68407 -20.05511,-20.7307 -44.56691,-44.54807 -24.51181,-23.81736 -45.21181,-44.55137 -46,-46.07558 -3.45002,-6.6716 -0.66603,-12.86304 6.69818,-14.8964 2.97963,-0.82272 92.84325,-14.15308 115.76299,-17.17228 l 8.39425,-1.10577 27.82009,-56.362778 c 16.88573,-34.21004 28.8741,-57.3396 30.50177,-58.84808 3.1939,-2.95999998 8.74199,-3.32763998 12.3267,-0.81681 1.57897,1.10595 11.92233,20.95226 30.67905,58.8654 l 28.29697,57.196928 5.29345,0.68087 c 18.42574,2.37002 115.88551,16.79584 118.67504,17.56607 7.32023,2.02121 10.13477,8.22958 6.71944,14.82191 -0.76944,1.48519 -21.46944,22.23293 -46,46.10609 -24.53056,23.87317 -44.60102,43.78923 -44.60102,44.25792 0,0.46869 4.54629,27.0611 10.10286,59.09425 5.55658,32.03314 10.12086,60.63616 10.14286,63.56226 0.0565,7.51319 -2.36381,10.57673 -8.68087,10.98806 -4.49858,0.29292 -7.4857,-1.13625 -60.0906,-28.75 -30.44619,-15.98203 -55.82973,-29.05824 -56.40789,-29.05824 -0.57815,0 -13.9921,6.80149 -29.80877,15.11443 -81.82338,43.00478 -81.58321,42.88557 -86.4044,42.88557 -3.1188,0 -5.05818,-0.56903 -6.18571,-1.81493 z m 417,0 c -3.38878,-3.74457 -3.89497,-7.48259 -2.28169,-16.84949 0.83697,-4.85957 2.64375,-15.36058 4.01506,-23.33558 1.37132,-7.975 3.89232,-22.6 5.60223,-32.5 1.7099,-9.9 3.95932,-22.95 4.9987,-29 1.03937,-6.05 2.58917,-14.99645 3.444,-19.88099 0.85482,-4.88454 1.55422,-9.44069 1.55422,-10.12476 0,-0.68407 -20.05511,-20.7307 -44.56691,-44.54807 -24.51181,-23.81736 -45.21181,-44.55137 -46,-46.07558 -3.45002,-6.6716 -0.66603,-12.86304 6.69818,-14.8964 2.97963,-0.82272 92.84325,-14.15308 115.76295,-17.17228 l 8.3943,-1.10577 27.8201,-56.362778 c 16.88566,-34.21004 28.87406,-57.3396 30.50176,-58.84808 3.1939,-2.95999998 8.742,-3.32763998 12.3267,-0.81681 1.5789,1.10595 11.9223,20.95226 30.679,58.8654 l 28.297,57.196928 5.2934,0.68087 c 18.4258,2.37002 115.8855,16.79584 118.6751,17.56607 7.3202,2.02121 10.1347,8.22958 6.7194,14.82191 -0.7694,1.48519 -21.4694,22.23293 -46,46.10609 -24.5305,23.87317 -44.601,43.78923 -44.601,44.25792 0,0.46869 4.5463,27.0611 10.1029,59.09425 5.5565,32.03314 10.1208,60.63616 10.1428,63.56226 0.057,7.51319 -2.3638,10.57673 -8.6809,10.98806 -4.4985,0.29292 -7.4857,-1.13625 -60.0906,-28.75 -30.4461,-15.98203 -55.8297,-29.05824 -56.4078,-29.05824 -0.5782,0 -13.9921,6.80149 -29.8088,15.11443 -81.82337,43.00478 -81.5832,42.88557 -86.40439,42.88557 -3.1188,0 -5.05818,-0.56903 -6.18571,-1.81493 z m 417,0 c -3.3888,-3.74457 -3.895,-7.48259 -2.2817,-16.84949 0.837,-4.85957 2.6437,-15.36058 4.0151,-23.33558 1.3713,-7.975 3.8923,-22.6 5.6022,-32.5 1.7099,-9.9 3.9593,-22.95 4.9987,-29 1.0394,-6.05 2.5892,-14.99645 3.444,-19.88099 0.8548,-4.88454 1.5542,-9.44069 1.5542,-10.12476 0,-0.68407 -20.0551,-20.7307 -44.5669,-44.54807 -24.5118,-23.81736 -45.2118,-44.55137 -46,-46.07558 -3.45,-6.6716 -0.666,-12.86304 6.6982,-14.8964 2.9796,-0.82272 92.8432,-14.15308 115.763,-17.17228 l 8.3942,-1.10577 27.8201,-56.362778 c 16.8857,-34.21004 28.8741,-57.3396 30.5018,-58.84808 3.1939,-2.95999998 8.742,-3.32763998 12.3267,-0.81681 1.5789,1.10595 11.9223,20.95226 30.679,58.8654 l 28.297,57.196928 5.2934,0.68087 c 18.4258,2.37002 115.8855,16.79584 118.6751,17.56607 7.3202,2.02121 10.1347,8.22958 6.7194,14.82191 -0.7694,1.48519 -21.4694,22.23293 -46,46.10609 -24.5305,23.87317 -44.601,43.78923 -44.601,44.25792 0,0.46869 4.5463,27.0611 10.1029,59.09425 5.5565,32.03314 10.1208,60.63616 10.1428,63.56226 0.057,7.51319 -2.3638,10.57673 -8.6809,10.98806 -4.4985,0.29292 -7.4857,-1.13625 -60.0906,-28.75 -30.4461,-15.98203 -55.8297,-29.05824 -56.4078,-29.05824 -0.5782,0 -13.9921,6.80149 -29.8088,15.11443 -81.8234,43.00478 -81.5832,42.88557 -86.4044,42.88557 -3.1188,0 -5.0582,-0.56903 -6.1857,-1.81493 z m 417,0 c -3.3888,-3.74457 -3.895,-7.48259 -2.2817,-16.84949 0.837,-4.85957 2.6437,-15.36058 4.0151,-23.33558 1.3713,-7.975 3.8923,-22.6 5.6022,-32.5 1.7099,-9.9 3.9593,-22.95 4.9987,-29 1.0394,-6.05 2.5892,-14.99645 3.444,-19.88099 0.8548,-4.88454 1.5542,-9.44069 1.5542,-10.12476 0,-0.68407 -20.0551,-20.7307 -44.5669,-44.54807 -24.5118,-23.81736 -45.2118,-44.55137 -46,-46.07558 -3.45,-6.6716 -0.666,-12.86304 6.6982,-14.8964 2.9796,-0.82272 92.8432,-14.15308 115.763,-17.17228 l 8.3942,-1.10577 27.8201,-56.362778 c 16.8857,-34.21004 28.8741,-57.3396 30.5018,-58.84808 3.1939,-2.95999998 8.742,-3.32763998 12.3267,-0.81681 1.5789,1.10595 11.9223,20.95226 30.679,58.8654 l 28.297,57.196928 5.2934,0.68087 c 18.4258,2.37002 115.8855,16.79584 118.6751,17.56607 7.3202,2.02121 10.1347,8.22958 6.7194,14.82191 -0.7694,1.48519 -21.4694,22.23293 -46,46.10609 -24.5305,23.87317 -44.601,43.78923 -44.601,44.25792 0,0.46869 4.5463,27.0611 10.1029,59.09425 5.5565,32.03314 10.1208,60.63616 10.1428,63.56226 0.057,7.51319 -2.3638,10.57673 -8.6809,10.98806 -4.4985,0.29292 -7.4857,-1.13625 -60.0906,-28.75 -30.4461,-15.98203 -55.8297,-29.05824 -56.4078,-29.05824 -0.5782,0 -13.9921,6.80149 -29.8088,15.11443 -81.8234,43.00478 -81.5832,42.88557 -86.4044,42.88557 -3.1188,0 -5.0582,-0.56903 -6.1857,-1.81493 z"
     id="path4224"
     inkscape:connector-curvature="0" />
</svg>
