<?xml version="1.0" encoding="UTF-8" standalone="no"?>
<svg width="60px" height="57px" viewBox="0 0 60 57" version="1.1" xmlns="http://www.w3.org/2000/svg" xmlns:xlink="http://www.w3.org/1999/xlink">
    <!-- Generator: Sketch 44 (41411) - http://www.bohemiancoding.com/sketch -->
    <title>star_rating_icon</title>
    <desc>Created with Sketch.</desc>
    <defs>
        <path d="M28,44 L12.1599146,52.3276257 L12.1599146,52.3276257 C11.67107,52.5846265 11.0664428,52.39668 10.809442,51.9078354 C10.707103,51.7131749 10.6717883,51.4902069 10.7089651,51.2734492 L13.7341523,33.6352549 L0.919253962,21.1438163 L0.919253962,21.1438163 C0.523770384,20.7583151 0.515678078,20.1252019 0.90117929,19.7297183 C1.05468789,19.5722346 1.25583031,19.4697475 1.47346734,19.438123 L19.1832212,16.8647451 L27.1032639,0.816985751 L27.1032639,0.816985751 C27.3476862,0.321732091 27.9473121,0.118393092 28.4425657,0.362815385 C28.6397783,0.460145624 28.7994058,0.619773146 28.8967361,0.816985751 L36.8167788,16.8647451 L54.5265327,19.438123 L54.5265327,19.438123 C55.0730775,19.5175406 55.451759,20.0249834 55.3723414,20.5715283 C55.3407169,20.7891653 55.2382297,20.9903077 55.080746,21.1438163 L42.2658477,33.6352549 L45.2910349,51.2734492 L45.2910349,51.2734492 C45.3843959,51.8177857 45.018808,52.3347416 44.4744716,52.4281026 C44.257714,52.4652795 44.0347459,52.4299648 43.8400854,52.3276257 L28,44 Z" id="path-1"></path>
        <path d="M42.8,32.4666667 C37.1662,32.4666667 32.6,37.0328667 32.6,42.6666667 C32.6,48.3004667 37.1662,52.8666667 42.8,52.8666667 C48.4338,52.8666667 53,48.3004667 53,42.6666667 C53,37.0328667 48.4338,32.4666667 42.8,32.4666667 Z" id="path-2"></path>
    </defs>
    <g id="Current-design" stroke="none" stroke-width="1" fill="none" fill-rule="evenodd">
        <g id="Warranty-modal-v2" transform="translate(-965.000000, -407.000000)">
            <g id="Group-20" transform="translate(487.000000, 172.000000)">
                <g id="Group-4" transform="translate(55.000000, 237.000000)">
                    <g id="star_rating_icon" transform="translate(425.000000, 0.000000)">
                        <g id="Star">
                            <use fill="#009BFF" fill-rule="evenodd" xlink:href="#path-1"></use>
                            <path stroke="#43505D" stroke-width="2" d="M28,45.1297757 L12.6252557,53.2127571 C11.6475665,53.7267588 10.4383122,53.3508657 9.92431061,52.3731766 C9.71963247,51.9838556 9.64900312,51.5379194 9.72335681,51.1044042 L12.6596717,33.9843748 L0.221242271,21.8599027 C-0.569724885,21.0889003 -0.585909497,19.8226737 0.185092927,19.0317066 C0.492110136,18.7167393 0.894394958,18.511765 1.32966902,18.4485159 L18.5191557,15.9507373 L26.2065278,0.374420039 C26.6953724,-0.61608728 27.8946241,-1.02276528 28.8851314,-0.533920691 C29.2795566,-0.339260213 29.5988117,-0.0200051709 29.7934722,0.374420039 L37.4808443,15.9507373 L54.670331,18.4485159 C55.7634207,18.6073512 56.5207836,19.6222369 56.3619484,20.7153266 C56.2986994,21.1506007 56.093725,21.5528855 55.7787577,21.8599027 L43.3403283,33.9843748 L46.2766432,51.1044042 C46.4633652,52.1930771 45.7321896,53.2269889 44.6435167,53.4137109 C44.2100014,53.4880646 43.7640652,53.4174353 43.3747443,53.2127571 L28,45.1297757 Z"></path>
                        </g>
                        <g id="Fill-1">
                            <use fill="#C9EFFF" fill-rule="evenodd" xlink:href="#path-2"></use>
                            <path stroke="#43505D" stroke-width="2" d="M42.8,31.4666667 C48.9860847,31.4666667 54,36.4805819 54,42.6666667 C54,48.8527514 48.9860847,53.8666667 42.8,53.8666667 C36.6139153,53.8666667 31.6,48.8527514 31.6,42.6666667 C31.6,36.4805819 36.6139153,31.4666667 42.8,31.4666667 Z"></path>
                        </g>
                        <path d="M47.3333333,43.8 L43.9333333,43.8 L43.9333333,47.2 C43.9333333,47.8256 43.4256,48.3333333 42.8,48.3333333 C42.1744,48.3333333 41.6666667,47.8256 41.6666667,47.2 L41.6666667,43.8 L38.2666667,43.8 C37.6410667,43.8 37.1333333,43.2922667 37.1333333,42.6666667 C37.1333333,42.0410667 37.6410667,41.5333333 38.2666667,41.5333333 L41.6666667,41.5333333 L41.6666667,38.1333333 C41.6666667,37.5077333 42.1744,37 42.8,37 C43.4256,37 43.9333333,37.5077333 43.9333333,38.1333333 L43.9333333,41.5333333 L47.3333333,41.5333333 C47.9589333,41.5333333 48.4666667,42.0410667 48.4666667,42.6666667 C48.4666667,43.2922667 47.9589333,43.8 47.3333333,43.8 Z" id="Path" fill="#43505D"></path>
                    </g>
                </g>
            </g>
        </g>
    </g>
</svg>